<?xml version="1.0" standalone="no"?>
<!DOCTYPE svg PUBLIC "-//W3C//DTD SVG 1.1//EN" "http://www.w3.org/Graphics/SVG/1.1/DTD/svg11.dtd" >
<svg xmlns="http://www.w3.org/2000/svg">
<metadata>
Created by FontPrep 20130207 at Thu Dec 11 13:42:25 2014
 By Alexandre Apraxine
copyright missing
</metadata>
<defs>
<font id="9c36cb44b05aea2cff118fe8b6713139" horiz-adv-x='1024' >
  <font-face 
    font-family="themify-Regular"
    font-weight="400"
    font-stretch="normal"
    units-per-em="2048"
    panose-1="0 0 5 0 0 0 0 0 0 0"
    ascent="1920"
    descent="-128"
    bbox="-36 -144 2084 1944"
    underline-thickness="50"
    underline-position="-50"
    unicode-range="U+0001-E75D"
  />
<missing-glyph horiz-adv-x="0" 
 />
    <glyph glyph-name=".notdef" horiz-adv-x="0" 
 />
    <glyph glyph-name="glyph1" horiz-adv-x="0" 
 />
    <glyph glyph-name="glyph1" horiz-adv-x="0" 
 />
    <glyph glyph-name="uni000D" unicode="&#xd;" horiz-adv-x="680" 
 />
    <glyph glyph-name="uni0001" horiz-adv-x="0" 
 />
    <glyph glyph-name="space" unicode=" " horiz-adv-x="1024" 
 />
    <glyph glyph-name="uniE600" unicode="&#xe600;" 
d="M2048 1440v-124h-396l280 -280l-84 -84l-280 280v-396h-124v396l-1280 -1284l-88 84l1284 1284h-396v124h396l-280 280l84 84l280 -280v396h124v-396l272 276l88 -88l-276 -272h396z" />
    <glyph glyph-name="uniE601" unicode="&#xe601;" 
d="M1448 716q48 0 84 36t36 86t-36 86t-84 36v120q100 0 170 -70t70 -170q0 -157 -148 -224q-45 -20 -92 -20v120zM1932 838q0 -130 -65 -241t-177 -176t-242 -65v120q152 0 258 108t106 254t-108 254t-256 108v120q130 0 242 -65t177 -176t65 -241zM432 1084q-68 0 -68 -36
v-260q0 -28 22 -48t46 -20h260l516 -512v1392l-508 -516h-268zM432 600q-76 0 -132 56t-56 132v260q0 72 50 114t138 42h216l680 692v-1980l-684 684h-212z" />
    <glyph glyph-name="uniE602" unicode="&#xe602;" 
d="M1384 1204v8h-56l12 92l4 44q0 10 -3 61t6 111t29 88l8 30v6q-19 58 -80 96q-113 71 -240 56l-28 4l-60 -12q-62 -11 -72 -64q-10 -6 -18 -23t-36 -37t-54 -16q-44 -11 -58 -22q-14 -12 -24 -36t-10 -150v-72l4 -58q0 -17 4 -34l12 -84l-64 12l6 -20q21 -63 41 -73
q4 -2 9 -7l36 -4l8 -36q32 -96 51 -122t40 -59q22 -32 41 -39l24 -20v-320l-52 -8q-274 -30 -498 -176q-98 -64 -160 -150t-78 -178v-4l1792 4q-16 88 -78 174t-158 152q-220 151 -488 174l-56 12v324l24 24q43 16 96 136q15 32 28 72l12 44l44 -4q0 4 10 14t18 46q3 3 8 21
q4 17 4 23zM584 1382v119v23t2 20q1 14 2 21q0 7 2 20t4 21t6 20q28 118 184 142q0 -6 2 0q2 4 4 4t2 6t4 2q42 100 136 122q41 11 100 18l32 -4q154 7 272 -54t164 -178q10 -50 2 -74t-14 -46q-8 -12 -12 -30l-12 -52q-12 -50 -4 -80t6 -46t-2 -20v-24q22 -11 31 -53
q9 -43 3 -95t-32 -96t-38 -50q-10 -7 -36 -26q-10 -22 -24 -58t-44 -84t-60 -74v-172q328 -46 556 -240q104 -88 164 -200t64 -232v-60l-2048 -4v64q4 120 64 234t166 202q232 193 566 240v156q-64 54 -114 174q-1 4 -26 62q-60 30 -100 130q-20 48 -14 106t46 80
q-4 11 -4 66z" />
    <glyph glyph-name="uniE603" unicode="&#xe603;" 
d="M1144 600q0 -48 -36 -84q-11 -11 -24 -16v-264l-120 4v256q-13 13 -25 21q-11 8 -23 32q-12 23 -12 63t40 77t80 31q40 6 80 -30t40 -86v-4zM1684 900q0 24 -11 40t-21 17q-10 2 -28 7l-1200 -4q-20 6 -40 -10t-20 -46v-856q0 -28 20 -45t40 -11l1200 -4q18 5 28 7
q10 1 21 17t11 40v848zM1808 52q0 -71 -50 -123t-134 -61l-1200 4q-66 -7 -128 50q-24 22 -40 58t-16 68v856q0 109 112 164q32 16 72 12l1080 4v236q0 204 -136 342t-344 146q-208 -8 -344 -146t-136 -342l-124 4q0 119 48 231q48 113 132 195t194 130t230 44
q120 4 230 -44t194 -130t132 -195q48 -112 48 -231v-244q64 7 122 -46t58 -130v-852z" />
    <glyph glyph-name="uniE604" unicode="&#xe604;" 
d="M1560 884l-60 -104l-236 136l60 104zM1208 654q0 -174 -124 -298l-364 -364q-124 -124 -300 -124q-117 0 -232 70q-35 22 -64 54q-124 116 -124 294t124 302l124 128l88 -84l-128 -128q-88 -88 -88 -214t88 -214t212 -88t212 88l364 364q88 88 88 214t-88 214t-212 88
t-212 -88l-16 -16l-84 84l16 16q124 124 294 124t302 -124q124 -124 124 -298zM1812 1196v-120h-492v120h492zM1248 1348l604 348l60 -104l-600 -348zM1208 1392l-104 60l192 328l104 -60zM612 644q-135 0 -236 72q-96 63 -146 165t-42 214q6 112 68 205l168 312
q67 98 170 148t214 44t204 -68l-64 -100q-104 70 -226 44t-194 -128l-168 -312q-68 -105 -46 -227t130 -197q160 -97 308 -12q51 30 92 80l92 -80q-144 -160 -324 -160z" />
    <glyph glyph-name="uniE605" unicode="&#xe605;" 
d="M1204 352v964h120v-964h-120zM844 352v964h120v-964h-120zM1568 1440h120v-1268q0 -117 -112 -166q-33 -14 -72 -14h-840q-114 0 -168 108q-16 31 -16 72v1268h124v-1268q0 -44 36 -56q11 -4 24 -4h840q40 0 58 36q6 12 6 24v1268zM1073 1740q-27 0 -49 -18l-24 -20
q-14 -12 -20 -26h208q-20 39 -72 58q-16 6 -43 6zM1748 1676v-120h-1328v120h432q24 122 154 170q39 14 80 14q84 0 150 -52t80 -132h432z" />
    <glyph glyph-name="uniE606" unicode="&#xe606;" 
d="M1835 56q10 0 21 8t8 20q4 4 0 9t-6 12q-4 7 -18 7t-22 -6q-10 -6 -10 -12t-4 -10h4q-5 -12 6 -20t21 -8zM1839 232q62 0 107 -48t38 -100q6 -56 -38 -104t-106 -48t-105 40q-42 40 -51 112q10 70 52 109t103 39zM1504 416q-22 120 -121 120q-50 0 -88 -39t-31 -81
q-6 -44 30 -84t86 -40q108 0 124 124zM1382 656q102 0 176 -76t66 -164q7 -92 -66 -168q-74 -76 -172 -76t-168 68t-78 176q14 156 150 220q43 20 92 20zM1380 820q144 0 268 63t200 176t80 253q-5 136 -78 248t-197 176t-273 64q-226 0 -402 -168q-54 -52 -82 -116l-36 -64
l-56 40q-116 88 -276 88q-73 0 -153 -30t-133 -82q-129 -125 -122 -268q-4 -72 30 -142t90 -124t136 -84t164 -30l80 8l28 8l28 -24q26 -40 90 -68t132 -28q136 0 250 112l20 32l44 -12q2 0 18 -4t58 -14q40 -10 92 -10zM1408 1920q113 0 235 -48t211 -132q90 -84 142 -196
t48 -232q7 -241 -192 -432q-89 -84 -211 -132t-257 -48q-84 0 -114 9q-29 9 -58 15q-113 -128 -308 -128q-142 0 -216 52t-80 56h-16l-34 -4h-14q-146 0 -270 64t-198 180q-74 115 -80 256q9 220 168 360t395 140q131 0 257 -72q205 292 592 292z" />
    <glyph glyph-name="uniE607" unicode="&#xe607;" 
d="M1448 836v120h236q-24 240 -192 408t-412 192v-232h-120v232q-236 -24 -404 -192t-192 -408h236v-120h-236q24 -240 192 -408t404 -192v240h120v-240q244 24 412 192t192 408h-236zM2052 956v-120h-248q-16 -189 -112 -347q-96 -157 -256 -257t-356 -116v-244h-120v244
q-190 16 -348 115t-256 257q-96 158 -112 348h-248v120h248q16 188 112 347t256 258q158 99 348 115v248h120v-248q196 -16 356 -116t257 -257q96 -158 111 -347h248z" />
    <glyph glyph-name="uniE608" unicode="&#xe608;" 
d="M1086 1288q-72 0 -90 -92q4 -9 8 -31q4 -21 26 -39t59 -18q38 0 66 30t21 58q6 28 -22 60t-68 32zM1088 1408q88 0 152 -66q63 -66 56 -146q8 -80 -56 -144t-152 -64t-148 58t-68 150q8 92 68 152t148 60zM724 220l356 252l372 -252l-4 1168l-364 264l-364 -260zM600 -12
l4 1464l476 348l492 -348l-4 -1464l-484 336z" />
    <glyph glyph-name="uniE609" unicode="&#xe609;" 
d="M1024 80q-92 18 -92 92q0 36 32 64q32 30 60 24q28 6 60 -22t32 -68q0 -72 -92 -90zM1568 1560l-1088 -4v-1080l1088 -4v1088zM1688 348l-1328 4v1324l1328 4v-1332zM1808 1740q0 22 -18 42t-30 14l-1472 4q-2 0 -15 -6t-23 -24t-10 -34v-1684q0 -18 10 -35t23 -23t15 -6
l1472 4q12 -6 30 14t18 42v1692zM1928 52q0 -73 -45 -124t-123 -60l-1472 4q-61 -7 -118 50q-22 22 -36 58t-14 68v1692q0 32 14 68t36 58q57 57 118 50l1472 4q78 -9 123 -60t45 -124v-1684z" />
    <glyph glyph-name="uniE60A" unicode="&#xe60a;" 
d="M648 236l376 276l376 -276l-144 444l380 276h-468l-144 444l-144 -444h-468l380 -276zM1024 1788l232 -712h748l-604 -444l232 -712l-608 440l-608 -440l232 712l-604 444h748z" />
    <glyph glyph-name="uniE60B" unicode="&#xe60b;" 
d="M1204 1196h-844v-1144q0 -19 18 -39t42 -21h724q41 0 56 38q4 9 4 22v1144zM780 1440q-66 0 -140 -32q-72 -32 -124 -92h536q-51 60 -104 83q-102 41 -168 41zM1324 1316v-1264q0 -76 -52 -128t-128 -52h-724q-72 0 -126 52t-54 128v1264h128q98 171 290 226
q62 18 126 18h-180v360h360v-360h-180q186 0 338 -144q45 -42 78 -100h124zM844 1800h-120v-120h120v120zM1440 1736l376 -60l-20 -120l-720 120l8 60l-8 64l720 120l20 -120z" />
    <glyph glyph-name="uniE60C" unicode="&#xe60c;" 
d="M784 1437q0 -102 77 -173t163 -64q88 -7 164 64t76 173q0 103 -68 171t-172 76q-106 -9 -173 -77t-67 -170zM1576 1478q0 34 -19 88t-53 94l96 72q96 -96 96 -250t-96 -282l-96 80q42 34 66 138q6 26 6 60zM544 1660q-72 -90 -72 -200q0 -36 22 -98t50 -82l-96 -80
q-96 128 -96 252q0 90 27 164t69 116zM664 1446q0 142 100 245q100 104 260 113q241 -14 332 -224q28 -60 28 -135q1 -135 -81 -235t-219 -126v-968l240 -4v-116l-600 -4v124l240 -4v976q-120 8 -210 112t-90 246zM284 1032q-164 210 -164 436q0 110 44 228q44 119 120 204
l92 -76q-136 -170 -136 -363t136 -345zM1928 1464q0 -109 -44 -227t-120 -201l-92 76q3 5 20 27t21 28q26 37 35 59l16 36q44 99 44 198q0 98 -36 198t-100 162l92 84q164 -211 164 -440z" />
    <glyph glyph-name="uniE60D" unicode="&#xe60d;" 
d="M1356 112q36 0 62 26t26 64t-22 64t-63 26q-39 0 -67 -24t-28 -62t28 -66t64 -28zM332 112q36 0 62 26t26 64t-22 64t-63 26q-39 0 -67 -24t-28 -62t28 -66t64 -28zM1356 416q84 0 148 -64t64 -146t-60 -148t-150 -66t-152 62t-62 152q0 131 130 192q38 18 82 18z
M332 416q84 0 148 -64t64 -146t-60 -148t-150 -66t-152 62t-62 152q0 131 130 192q38 18 82 18zM1524 1076h-1360l68 -484h1224zM148 1196h1392l16 120h-1428zM2048 1680v-120h-332l-32 -192l-124 -896h-1436l-132 968h1584l36 240h436z" />
    <glyph glyph-name="uniE60E" unicode="&#xe60e;" 
d="M1356 112q36 0 62 26t26 64t-22 64t-63 26q-39 0 -67 -24t-28 -62t28 -66t64 -28zM332 112q36 0 62 26t26 64t-22 64t-63 26q-39 0 -67 -24t-28 -62t28 -66t64 -28zM1356 416q84 0 148 -64t64 -146t-60 -148t-150 -66t-152 62t-62 152q0 131 130 192q38 18 82 18z
M332 416q84 0 148 -64t64 -146t-60 -148t-150 -66t-152 62t-62 152q0 131 130 192q38 18 82 18zM1204 1192h120v-476h-964v476h120v-356h724v356zM128 1316l104 -724h1224l100 724h-1428zM2048 1680v-120h-332l-156 -1088h-1436l-132 968h1584l36 240h436zM1204 1680h-724
v-116h-120v236h964v-232h-120v112z" />
    <glyph glyph-name="uniE60F" unicode="&#xe60f;" 
d="M1024 720q76 0 128 52t52 128t-52 128t-128 52t-128 -52t-52 -128t52 -128t128 -52zM1024 1200q124 0 212 -88t88 -212t-86 -212t-214 -88t-214 88t-86 212t88 212t212 88zM1612 724l20 60l296 88v52l-232 72l-64 16l-20 64q-14 52 -27 76t-21 40l-28 56l144 272l-36 36
l-272 -144l-56 28q-20 14 -52 26t-39 14q-6 2 -25 8l-60 20l-92 296h-48l-72 -236l-20 -60l-60 -20q-18 -5 -32 -11t-32 -10t-52 -27l-56 -28l-272 144l-36 -36l144 -272l-28 -56q-2 -8 -18 -34t-30 -82l-20 -64l-296 -88v-52l296 -88l20 -60q18 -69 48 -116l28 -56
l-144 -272q2 -2 7 -9t12 -12t17 -15l272 144l56 -32q14 -5 33 -16q19 -12 43 -18t40 -14l60 -16l92 -296h48l92 296l60 16q16 8 40 14t43 18q19 11 33 16l56 32l272 -144q10 10 17 15t12 12t7 9l-116 212l-28 60l28 56q29 46 37 73zM1672 552l152 -288q-46 -70 -164 -168
l-288 156q-12 -4 -48 -23q-36 -20 -88 -33l-96 -312q-11 -4 -28 -4l-58 -4h-60l-58 4q-17 0 -28 4l-96 312q-48 12 -84 30l-52 26l-288 -156q-118 98 -164 168l152 284q-2 5 -22 47t-34 93l-312 96q-4 11 -4 26l-4 60v60l4 58q0 17 4 28l312 96q12 48 30 84l26 52l-152 288
q31 48 82 96t82 68l288 -152q6 3 43 22t93 34l96 312l86 8h60l86 -8l96 -312q56 -14 136 -56l288 152q48 -31 96 -82t68 -82l-152 -288q2 -5 21 -40t35 -96l312 -96q4 -11 4 -28l4 -58v-60l-4 -60q0 -15 -4 -26l-312 -96q-12 -48 -30 -84z" />
    <glyph glyph-name="uniE610" unicode="&#xe610;" 
d="M782 476q270 0 468 198q92 92 143 212t51 254t-52 256t-142 214q-92 92 -212 143t-254 51q-202 0 -365 -108t-249 -302q-50 -114 -50 -251t52 -259t141 -211q91 -89 213 -143t256 -54zM0 1118q0 251 101 413q101 161 237 254q202 139 446 139q158 0 302 -61t252 -169
t169 -250t61 -304q0 -282 -192 -508l624 -624l-84 -84l-624 624q-226 -192 -508 -192q-162 0 -304 61t-250 169t-169 252t-61 280z" />
    <glyph glyph-name="uniE611" unicode="&#xe611;" 
d="M724 1440h120v-244h240v-120h-240v-240h-120v240h-244v120h244v244zM782 476q136 0 256 51t212 143t143 212t51 254t-52 256t-142 214q-92 92 -212 143t-254 51q-203 0 -370 -112q-55 -37 -98 -84q-92 -83 -144 -206t-52 -259q0 -137 51 -257t141 -210t212 -144
q122 -52 258 -52zM0 1106q0 127 24 223q50 204 202 364t402 211q74 16 156 16q158 0 302 -61t252 -169t169 -250t61 -304q0 -282 -192 -508l624 -624l-84 -84l-624 624q-226 -192 -508 -192q-162 0 -304 61t-250 169t-169 252t-61 272z" />
    <glyph glyph-name="uniE612" unicode="&#xe612;" 
d="M1084 1080h-604v120h604v-120zM782 476q270 0 468 198q92 92 143 212t51 254t-52 256t-142 214q-92 92 -212 143t-254 51q-202 0 -365 -108t-249 -302q-50 -114 -50 -251t52 -259t141 -211q91 -89 213 -143t256 -54zM0 1118q0 251 101 413q101 161 237 254
q202 139 446 139q158 0 302 -61t252 -169t169 -250t61 -304q0 -282 -192 -508l624 -624l-84 -84l-624 624q-226 -192 -508 -192q-162 0 -304 61t-250 169t-169 252t-61 280z" />
    <glyph glyph-name="uniE613" unicode="&#xe613;" 
d="M1570 476q-102 0 -176 -76t-66 -168q-7 -88 66 -164q72 -76 170 -76t168 68t80 172q-12 158 -150 224q-43 20 -92 20zM482 -8q102 0 176 76t66 164q6 92 -66 168t-171 76t-169 -68t-78 -176q14 -156 150 -220q43 -20 92 -20zM1553 596q156 0 263 -101t116 -263
q-10 -158 -114 -259t-254 -101t-256 110q-108 110 -100 250q-5 44 12 100t31 76q13 20 25 38t16 22l-264 284l-272 -284q32 -31 56 -82q24 -50 27 -74t5 -48t4 -32q-10 -158 -114 -259t-254 -101q-69 0 -137 28t-115 78q-112 115 -104 254q-8 144 104 256q46 48 114 78
t147 30t133 -30q12 -7 42 -22l276 296l-748 796l84 84l752 -792l744 792l92 -84l-756 -796l284 -296q70 52 161 52z" />
    <glyph glyph-name="uniE614" unicode="&#xe614;" 
d="M724 112v-120h600v1808h-600v-120h240v-120h-240v-120h120v-124h-120v-120h240v-120h-240v-120h120v-124h-120v-116h240v-120h-240v-120h120v-124h-120v-120h240v-120h-240zM1444 -128h-840v2048h840v-2048z" />
    <glyph glyph-name="uniE615" unicode="&#xe615;" 
d="M240 484l128 -252h108l120 252l4 768h-120l4 -780h-124l4 780h-128zM596 1496h-356l-4 -124h364zM1084 112l-4 -120h608l-4 1808h-600l-4 -120h244l-4 -120h-236l-4 -120h124l-4 -124h-116l-4 -120h244l-4 -120h-236l-4 -120h124l-4 -124h-116l-4 -116h244l-4 -120h-236
l-4 -120h124l-4 -124h-116l-4 -120h244l-4 -120h-236zM304 1800q-48 0 -64 -50l-4 -10l4 -124h356l4 124q-5 12 -7 24t-17 24t-40 12h-232zM1804 -128h-840l-4 2048h848zM610 1906q71 -34 94 -96q11 -33 16 -70l-4 -1284l-292 -596l-308 596l4 1284q-8 68 48 124t132 56z
" />
    <glyph glyph-name="uniE616" unicode="&#xe616;" 
d="M428 384l-172 168l-84 -80l428 -428l1276 1276l-428 428l-84 -84l172 -172l-88 -84l-168 168l-84 -84l84 -84l-84 -88l-88 88l-84 -88l168 -168l-84 -88l-172 172l-84 -84l84 -88l-84 -84l-84 84l-84 -84l168 -168l-84 -88l-168 172l-88 -84l88 -88l-88 -84l-84 84
l-88 -84l172 -172zM600 -128l-600 600l1448 1448l600 -600z" />
    <glyph glyph-name="uniE617" unicode="&#xe617;" 
d="M1444 1680h-896v-1512l444 308l452 -308v1512zM428 1800h1140v-1860l-576 392l-564 -396v1864z" />
    <glyph glyph-name="uniE618" unicode="&#xe618;" 
d="M1088 1800h-488v-868l244 168l244 -168v868zM1324 1680v120h604v-1808h-1808v1808h240v-120h-120v-1568h1568v1568h-484zM480 1920h728v-1212l-364 244l-364 -244v1212z" />
    <glyph glyph-name="uniE619" unicode="&#xe619;" 
d="M1324 716v120h724v-724h-120v496q-99 -296 -345 -478t-562 -182q-211 0 -397 87t-320 244t-192 361l116 32q48 -176 166 -314t285 -214t354 -76q285 0 509 182t290 466h-508zM724 1076v-120h-724v724h120v-496q99 296 345 478t562 182q211 0 397 -87t320 -244t192 -361
l-116 -32q-48 176 -166 314t-285 214t-354 76q-285 0 -509 -182t-290 -466h508z" />
    <glyph glyph-name="uniE61A" unicode="&#xe61a;" 
d="M1084 956h844v-120h-844v-844h-120v844h-844v120h844v844h120v-844z" />
    <glyph glyph-name="uniE61B" unicode="&#xe61b;" 
d="M1084 1316q0 52 -36 88t-84 36v120q96 0 168 -70t72 -174h-120zM1024 1076q124 0 212 88t88 212t-88 214t-212 90t-212 -90t-88 -214t88 -212t212 -88zM1444 1390q0 -168 -101 -286t-263 -144v-968h-120v972q-158 26 -257 142t-99 284t124 288q124 122 296 122
q112 0 208 -56t154 -150t58 -204z" />
    <glyph glyph-name="uniE61C" unicode="&#xe61c;" 
d="M684 324l-228 232l-84 -236l80 -76zM1444 1060l-256 256l-660 -664l252 -252zM1612 1232l-248 256l-92 -88l256 -256zM1576 1676q-21 0 -44 -16l-84 -88l252 -252l88 84q18 30 18 38t-1 14q-3 21 -21 36l-164 168q-23 16 -44 16zM1576 1796q76 0 128 -52l168 -168h4
q101 -147 -4 -256l-1088 -1092l-636 -212l212 636l1088 1092q52 52 128 52z" />
    <glyph glyph-name="uniE61D" unicode="&#xe61d;" 
d="M980 624l-232 236l-76 -240l76 -72zM1556 1184l-252 248l-480 -476l252 -256zM1732 1352l-256 256l-88 -88l256 -252zM120 -8l1688 -4v1028l120 -4v-1140l-1928 -4v1812l904 -4v-116l-784 -4v-1564zM1920 1572q-9 36 -16 36l-172 172q-32 32 -64 14q-13 -2 -20 -18
l-88 -80l256 -260l88 92v-4q16 31 16 48zM2040 1562q0 -32 -16 -68t-36 -50l-908 -912l-632 -208l208 632l908 912q66 52 136 49t120 -53l168 -168q12 -17 22 -28q10 -10 20 -42t10 -64z" />
    <glyph glyph-name="uniE61E" unicode="&#xe61e;" 
d="M964 596v-604h120v604h-120zM360 1800v-484h1328v484h-1328zM240 1920h1568v-240h120v-120h-120v-364h-1568v364h-60q-24 0 -42 -18t-18 -46v-360q0 -36 36 -54q12 -6 24 -6h724q76 0 128 -52t52 -128v-180h120v-844h-360v844h120v180q0 44 -36 56q-11 4 -24 4h-724
q-117 0 -166 112q-14 33 -14 68v360q0 76 52 130t128 54h60v240z" />
    <glyph glyph-name="uniE61F" unicode="&#xe61f;" 
d="M1748 136q0 -52 54 -76q20 -8 44 -8t53 28t29 57q0 30 -31 89t-42 81t-15 29q-92 -148 -92 -200zM2048 140q0 -84 -62 -146t-150 -62t-148 61t-60 131t53 178t111 178l48 72l48 -72q71 -89 140 -252q20 -49 20 -88zM824 152l440 444h-980l436 -444q10 -6 13 -9t9 -5
t13 -4q8 -3 29 -2q20 0 40 20zM120 788l6 -26q2 -6 5 -10t9 -16l24 -20h1220l144 140h196l-780 784l-804 -800q-20 -20 -20 -52zM619 1800q-119 0 -209 -90t-90 -204t50 -182q12 -16 38 -48l436 436q-106 88 -225 88zM628 1920q176 0 300 -124l16 16l1068 -1076h-432
l-672 -668q-26 -35 -98 -52q-16 -4 -45 -4t-69 15t-60 41l-580 584q-12 16 -34 42t-22 100t56 130l268 268q-87 76 -116 216q-8 43 -8 84q0 162 124 304q76 66 146 95t158 29z" />
    <glyph glyph-name="uniE620" unicode="&#xe620;" 
d="M1868 896q0 226 -122 432q-36 63 -86 120l-1188 -1188q242 -208 552 -208q348 0 596 248t248 596zM1024 1740q-348 0 -596 -248t-248 -596q0 -226 122 -432q36 -63 86 -120l1188 1188q-242 208 -552 208zM1021 1860q199 0 375 -74t310 -208t208 -310t74 -372t-74 -372
t-208 -310t-310 -208t-372 -74t-372 74t-310 208t-208 310t-74 372t74 372t206 308q130 132 306 208t375 76z" />
    <glyph glyph-name="uniE621" unicode="&#xe621;" 
d="M1017 112q-23 0 -41 22t-12 38q-6 18 10 39t44 21t44 -12q14 -12 16 -24t6 -24q-4 -12 -6 -22t-20 -24t-41 -14zM1500 -8q48 0 64 50l4 10l-4 300h-1084l-4 -300q19 -60 68 -60h956zM480 476h1084l4 964h-1092zM540 1800q-32 0 -38 -10t-16 -25q-10 -14 -6 -25l-4 -180
h1092l-4 180q4 11 -6 25q-10 15 -16 25t-38 10h-964zM1504 1920q115 0 168 -110q16 -34 12 -70l4 -1688q-10 -84 -62 -132t-126 -48h-956q-74 0 -126 48t-62 132l4 1688q-8 68 48 124t132 56h964z" />
    <glyph glyph-name="uniE622" unicode="&#xe622;" 
d="M240 836v120h1568v-120h-1568z" />
    <glyph glyph-name="uniE623" unicode="&#xe623;" 
d="M1024 656q-111 0 -180 28v-508l176 136l184 -136v508q-69 -28 -180 -28zM964 1680h120v-228l236 44l20 -116l-220 -44l140 -232l-104 -60l-132 220l-132 -220l-100 60l136 232l-212 44l20 116l228 -44v228zM1504 1318q0 132 -64 243t-174 175t-242 64t-242 -64t-174 -175
t-64 -243q0 -202 148 -350l24 -16l16 -12q128 -104 290 -104t298 104l12 12l24 16q148 148 148 350zM1022 1920q250 0 428 -178t178 -426q0 -179 -110 -342q-35 -51 -58 -72l-28 -26q-5 -5 -14 -10t-26 -22q-15 -9 -29 -20t-39 -24v-868l-304 228l-296 -228v868
q-24 13 -32 19l-20 15q-2 2 -16 10q-17 17 -21 18t-43 36q-72 66 -122 186t-50 238q0 242 178 420q82 82 192 130t232 48z" />
    <glyph glyph-name="uniE624" unicode="&#xe624;" 
d="M1024 656q-111 0 -180 28v-508l176 136l184 -136v508q-69 -28 -180 -28zM1236 1318q0 -86 -62 -148t-150 -62t-150 62t-62 148t62 148t150 62t150 -62t62 -148zM1504 1318q0 132 -64 243t-174 175t-242 64t-242 -64t-174 -175t-64 -243q0 -202 148 -350l24 -16l16 -12
q128 -104 290 -104t298 104l12 12l24 16q148 148 148 350zM1022 1920q250 0 428 -178t178 -426q0 -179 -110 -342q-35 -51 -58 -72l-28 -26q-5 -5 -14 -10t-26 -22q-15 -9 -29 -20t-39 -24v-868l-304 228l-296 -228v868q-24 13 -32 19l-20 15q-2 2 -16 10q-17 17 -21 18
t-43 36q-72 66 -122 186t-50 238q0 242 178 420q82 82 192 130t232 48z" />
    <glyph glyph-name="uniE625" unicode="&#xe625;" 
d="M1084 1196h-360v-836l160 -200h40l160 200v836zM724 1800v-484h360v404q0 36 -18 58t-42 22h-300zM1284 1800q108 0 148 -120q12 -36 12 -80v-512h-120v530q0 30 -12 46t-28 16h-80v-1364l-224 -280h-16v-80l-120 -84v164h-20l-220 280v1464q0 102 74 132q21 8 46 8h300
q58 0 102 -33t66 -87h92z" />
    <glyph glyph-name="uniE626" unicode="&#xe626;" 
d="M360 272l32 -28l252 28l680 676l-260 256l-672 -676zM1720 1376q4 4 0 10t-2 10t-4 12t-6 12l-215 207q-1 -1 -7 -4t-10 -11q-6 -8 -15 -13q-9 -6 -9 -11l-300 -296l258 -254l286 282q0 8 8 14t8 12zM1808 1108q0 8 8 12q-4 4 -2 8t-2 8t-4 8t-8 8l-48 52l-1052 -1048
l-352 -40l-16 12l-56 -56l-148 24l120 120l-16 12l44 356l1084 1088q26 22 34 30q50 50 91 50q73 0 91 -36l216 -212q2 -4 18 -25t26 -53t4 -58l-4 -34l-12 -34l64 -64h4q6 -12 20 -32q35 -47 16 -104q4 -15 -6 -37q-11 -22 -16 -34t-42 -49l-364 -364l-84 84l360 364
q10 6 16 16t11 15t5 13z" />
    <glyph glyph-name="uniE627" unicode="&#xe627;" 
d="M1084 -8h-120v1600l-740 -740l-84 88l884 884l884 -884l-84 -88l-740 740v-1600z" />
    <glyph glyph-name="uniE628" unicode="&#xe628;" 
d="M1008 1784l884 -880v-4l-884 -884l-88 84l740 744l-1540 -4v124l1540 -4l-740 744z" />
    <glyph glyph-name="uniE629" unicode="&#xe629;" 
d="M1928 960v-120h-1540l740 -740l-88 -88l-884 888l884 884l88 -84l-740 -740h1540z" />
    <glyph glyph-name="uniE62A" unicode="&#xe62a;" 
d="M964 1800h120v-1600l740 740l84 -88l-884 -884l-884 884l84 88l740 -740v1600z" />
    <glyph glyph-name="uniE62B" unicode="&#xe62b;" 
d="M1144 600q0 -48 -36 -84q-11 -11 -24 -16v-264l-120 4v256q-13 13 -25 21q-11 8 -23 32q-12 23 -12 63t40 77t80 31q40 6 80 -30t40 -86v-4zM1684 904q0 24 -22 42t-34 14v4l-1208 -4q-20 6 -40 -11t-20 -45v-856q0 -28 20 -45t40 -11l1204 -4q12 5 22 7t24 20t14 37v852
zM1504 1324q0 97 -36 187t-102 153q-151 148 -342 140q-191 8 -342 -140q-66 -63 -102 -153t-36 -187l960 -244v244zM1804 52q0 -74 -49 -124t-131 -60l-1204 4q-66 -7 -128 50q-24 21 -38 57t-14 69v856q0 110 108 164q32 16 72 12v240q0 162 78 300t218 220q139 83 308 88
q169 -5 308 -88q140 -82 218 -220t78 -300v-236q82 -9 129 -59t47 -125v-848z" />
    <glyph glyph-name="uniE62C" unicode="&#xe62c;" 
d="M440 1476l388 -1024l84 552l556 88zM1020 900l-148 -916l-636 1700l1696 -636z" />
    <glyph glyph-name="uniE62D" unicode="&#xe62d;" 
d="M1026 1076q174 0 298 -124t124 -298t-124 -298l-364 -364q-124 -124 -298 -124t-298 124q-124 116 -124 294t124 302l128 128l84 -84l-128 -128q-88 -88 -88 -214t88 -214t214 -88t214 88l364 364q88 88 88 214t-88 214t-214 88t-214 -88l-16 -16l-84 84l16 16
q124 124 298 124zM906 600q-174 0 -298 124t-124 298t124 298l360 360q124 124 298 124t298 -124t124 -298t-124 -298l-112 -112l-88 84l116 112q88 88 88 214t-88 214t-214 88t-214 -88l-360 -360q-88 -88 -88 -214t88 -214t214 -88t214 88l84 -84q-124 -124 -298 -124z
" />
    <glyph glyph-name="uniE62E" unicode="&#xe62e;" 
d="M1324 1196v-1204h604v1204h-604zM1204 -8v1204h-1084v-1204h1084zM1928 1800h-1808v-484h1808v484zM2048 -128h-2048v2048h2048v-2048z" />
    <glyph glyph-name="uniE62F" unicode="&#xe62f;" 
d="M1684 1196v120h364v-1324h-1568v364h124v-244h1324v1084h-244zM120 1680v-1084h1324v1084h-1324zM0 476v1324h1568v-1324h-1568z" />
    <glyph glyph-name="uniE630" unicode="&#xe630;" 
d="M1808 956v120h240v-1084h-1324v240h120v-120h1084v844h-120zM1448 1440h240v-1088h-1328v240h120v-116h1088v840h-120v124zM120 1680v-844h1084v844h-1084zM0 716v1084h1324v-1084h-1324z" />
    <glyph glyph-name="uniE631" unicode="&#xe631;" 
d="M720 359q0 103 -76 173t-164 64q-88 7 -164 -64t-76 -173q0 -103 68 -171t172 -76q104 8 172 76t68 171zM840 336q0 -54 -29 -122t-75 -114q-112 -112 -256 -104q-91 -4 -174 42q-82 46 -134 133q-52 86 -52 187q0 146 102 250t258 112q29 -5 56 -6q26 0 42 -8t52 -24
t54 -30l984 980l84 -92l-92 -84l208 -212l-84 -84l-208 208l-84 -80l208 -216l-84 -80l-212 204l-632 -624q52 -93 60 -137q8 -45 8 -99z" />
    <glyph glyph-name="uniE632" unicode="&#xe632;" 
d="M2048 52q0 -76 -47 -125t-133 -59l-1688 4q-66 -7 -128 50q-24 21 -38 57t-14 69v784l120 -4v-776q0 -20 14 -38t24 -19q10 -2 22 -7l1688 4q16 -6 38 13t22 43v784l120 -4v-776zM1608 856l-584 -588v4l-584 580l84 88l440 -440v1304l120 -4v-1296l440 432z" />
    <glyph glyph-name="uniE633" unicode="&#xe633;" 
d="M240 352v-240h1568v240h-1568zM1172 892l160 172l380 -368l-84 -88l-292 284l-188 -200l-300 528l-408 -596l-100 68l520 756zM1808 1680h-1568v-1204h1568v1204zM1928 -8h-1808v1808h1808v-1808z" />
    <glyph glyph-name="uniE634" unicode="&#xe634;" 
d="M1502 1720q-169 0 -291 -120t-131 -300l4 -32h-124l4 32q-10 180 -132 300t-292 120q-84 0 -164 -34t-136 -92t-90 -136t-30 -158q-4 -12 0 -23t2 -27t4 -26q6 -12 6 -28l16 -36q78 -261 430 -648q126 -140 262 -260t180 -164q198 160 403 374t321 380t156 314l12 44h4
q-4 12 2 26t4 26q-2 14 2 25t0 23q4 80 -30 158t-91 136q-56 58 -136 92t-165 34zM544 1840q148 0 285 -84t191 -208q78 136 206 214t255 78q126 0 233 -44t180 -119q74 -75 114 -173t36 -204q4 -16 0 -32t-4 -32l-8 -68l-20 -44q-63 -293 -506 -752q-164 -170 -298 -282
t-148 -126l-40 -28l-32 28q-13 10 -142 120q-346 297 -600 638q-152 205 -218 398l-8 44q-12 20 -12 38l-8 66q0 17 -4 32q4 154 78 278t198 192q124 70 272 70z" />
    <glyph glyph-name="uniE635" unicode="&#xe635;" 
d="M1024 88q62 44 206 174t226 222q84 91 180 208l92 -72q-159 -215 -432 -464q-94 -88 -163 -138t-69 -54l-40 -28l-32 28q-68 41 -230 188q-229 206 -434 468l100 72q114 -158 348 -386q78 -76 152 -138t96 -80zM1028 1028l340 -244l344 244l372 -268l-68 -96l-308 216
l-336 -240l-348 240l-336 -240l-348 240l-300 -216l-76 96l380 268l340 -244zM8 1238q0 14 -4 30t0 32q-7 214 156 382q70 74 172 116t198 42q158 0 288 -76t210 -216q54 122 190 207t270 85q240 0 398 -152t166 -388q-4 -15 -4 -32l-8 -66q0 -16 -8 -34l-12 -44
q-9 -20 -10 -34t-11 -31t-17 -39t-18 -40l-108 48q44 111 44 128l20 44q-4 12 2 26t4 26q-2 14 2 25t0 23q4 80 -30 158t-91 136q-56 58 -136 92t-165 34q-169 0 -291 -120t-131 -300h-116q-10 180 -132 300t-292 120q-84 0 -164 -34t-136 -92t-90 -136t-30 -158
q-4 -12 0 -23t2 -27t4 -26q6 -12 6 -28l16 -36q0 -16 6 -30l12 -28q9 -19 17 -33t13 -33l-104 -56q-16 18 -22 40t-16 36t-14 33t-12 31l-8 44h-4q-12 60 -12 74z" />
    <glyph glyph-name="uniE636" unicode="&#xe636;" 
d="M1204 1756q10 0 16 4t18 2t19 2t15 0q64 7 118 -45t54 -131v-36q8 8 16 8t16 4q6 4 16 2t16 2q119 -12 166 -110l14 -946q0 -113 -100 -395q-20 -58 -20 -97v-88q0 -19 -14 -37t-22 -20q-10 -2 -28 -7q-12 5 -22 7t-24 20t-14 37v88q0 34 12 73l20 65q5 16 20 60
q72 204 72 294v876q0 26 -22 44t-38 12q-16 6 -34 -6t-24 -28t-6 -18v-468q0 -20 -12 -36t-27 -21q-16 -5 -21 -7q-60 20 -60 64v660q0 46 -42 60l-10 4q-12 -4 -24 -6t-26 -20t-14 -34q0 4 -4 0v-544q0 -28 -20 -45t-40 -11q-11 -4 -22 2l-24 14q-14 8 -14 40v696
q0 28 -20 45t-40 11q-20 6 -40 -10t-20 -46v-696q0 -48 -50 -64l-10 -4q-13 5 -28 9t-28 31l-4 578l-8 20q-17 26 -31 28t-21 6q-30 -8 -47 -26t-17 -38v-684q0 -38 -15 -46t-21 -14q-4 0 -22 -4t-46 24l-136 148q-12 18 -20 23t-10 7q-4 3 -20 9q-17 6 -26 -1q-8 -6 -12 -2
q-4 -8 -16 -12t-12 -28q-4 -4 -4 -9t2 -11l6 -20l396 -848l16 -12l20 -8q48 -16 48 -60v-104q0 -19 -14 -37t-24 -20t-22 -7q-12 4 -25 6t-24 18t-11 40v64q-13 8 -23 12t-17 16q-8 10 -16 17t-12 23l-396 840q-28 56 -23 89t11 57t31 56q26 32 49 38q55 36 121 23t119 -75
l28 -36v532q0 109 112 164q32 16 72 12q6 4 16 2t14 -2l30 -8q0 101 112 150q33 14 68 10q64 8 122 -44t58 -116z" />
    <glyph glyph-name="uniE637" unicode="&#xe637;" 
d="M732 708q0 -64 -66 -64q-18 0 -42 24l-188 236q-25 49 -74 42q-14 -2 -20 -6t-10 -8t-8 -6t-12 -14t-8 -20q-4 -4 -4 -16t12 -36l424 -732q12 -23 27 -29t17 -7q29 0 44 -38q4 -9 4 -18v-84q0 -24 -18 -42t-43 -18q-27 0 -45 18t-18 42v44q-26 13 -37 27l-19 23
q-7 7 -16 22l-424 732q-42 56 -20 144q13 64 76 110t145 28t127 -90l60 -76l-44 660q-14 56 40 128q46 46 77 54t43 10q84 0 128 -44q25 -12 32 -28l12 -24v92q0 72 52 124t126 52t126 -52t52 -124v-92q55 96 172 96q72 -8 122 -66t42 -130l-6 -114q2 2 4 2t2 2t4 2
q49 32 78 32q106 0 147 -62q40 -62 31 -146l-144 -972q-10 -70 -50 -110q-11 -11 -18 -22q-18 -13 -22 -21q-5 -9 -8 -13t-5 -13t-3 -13q-2 -7 -2 -26v-146q0 -60 -68 -60q-20 0 -36 16t-16 44v120q0 116 46 168q22 28 38 44t28 52l140 968v2q9 60 -32 70h-10l-16 -4
q-6 0 -18 -17t-12 -31l-60 -400q0 -22 -18 -37t-32 -15h-14q-22 0 -28 12q-4 -4 -6 -2t-12 2t-18 12l-12 18q-8 13 -8 30l36 640q0 18 -10 35t-17 20t-25 9l-22 -4q-10 0 -26 -16t-16 -32l-56 -576q0 -20 -18 -38t-39 -18h-35q-31 0 -54 38q-6 10 -6 22l-12 736q0 60 -62 60
q-18 0 -34 -16t-16 -40l-16 -796q0 -18 -12 -32t-21 -19q-9 -4 -11 -6l-2 -1q-2 -2 -4 -2t-12 -6t-26 -6t-22 4t-10 8q-24 17 -24 44l-64 640q0 18 -15 35t-25 17l-20 4q-7 -4 -12 -4q-4 0 -10 -4t-10 -6t-12 -16t-8 -22v-12z" />
    <glyph glyph-name="uniE638" unicode="&#xe638;" 
d="M1320 1376q0 64 -70 64q-36 0 -54 -56v-244q0 -36 -36 -54q-12 -6 -28 -6t-36 20t-20 40v354q0 26 -18 44t-43 18q-27 0 -43 -22t-16 -54v-408q0 -20 -16 -40q-16 -19 -44 -20q-28 0 -44 16t-16 44v324q-21 38 -39 42q-7 2 -27 2t-36 -18q-18 -18 -18 -50v-536
q0 -24 -18 -42t-43 -18q-27 0 -45 18t-18 42v100l-34 8l-32 2q-13 0 -21 -10q-7 -10 -9 -12q-31 -31 -12 -88l208 -448v-6q0 -2 4 -6q0 -18 23 -39t45 -13h14q22 0 38 -20t16 -40v-212q0 -20 -14 -40t-44 -20t-46 18t-16 42v156q-42 7 -83 46t-49 90l-204 440q-20 42 -20 92
t24 92q10 25 46 57q36 31 72 37t49 4t23 -2t22 -4v88h4v224q0 80 54 136t130 56q6 0 16 -2l25 -5q17 -3 27 -9q25 87 112 118q27 10 60 10q112 0 168 -128q31 16 80 16q48 0 98 -39t66 -93q7 4 16 4l32 4h30q23 0 57 -16t59 -42q58 -58 58 -138v-704q0 -100 -80 -186
q-13 -14 -18 -22q-6 -8 -16 -24q-10 -14 -10 -40v-216q0 -15 -16 -38t-44 -22q-28 0 -44 18t-16 42v216q0 79 60 149t60 123v704q0 51 -40 70q-12 6 -24 6l-40 -4q-16 0 -16 -32v-164q0 -31 -38 -54q-10 -6 -28 -6t-36 18t-18 42v256z" />
    <glyph glyph-name="uniE639" unicode="&#xe639;" 
d="M120 -8h1808v960l-1808 4v-964zM120 1560v-484l1808 -4v244h-1016l-236 244h-556zM2048 1440v-1568h-2048v1808h728l236 -240h1084z" />
    <glyph glyph-name="uniE63A" unicode="&#xe63a;" 
d="M1444 1652l-976 -380l976 -380v760zM136 1272l1432 556v-1112zM1688 -128v2048h120v-2048h-120z" />
    <glyph glyph-name="uniE63B" unicode="&#xe63b;" 
d="M1444 960v720h-1024l260 -368l-260 -352h1024zM1568 1804v-964h-1388l352 476l-348 488h1384zM1688 -128v2048h120v-2048h-120z" />
    <glyph glyph-name="uniE63C" unicode="&#xe63c;" 
d="M240 716h604v120h-240v604h-364v-724zM1444 956v724h-724v-120h4v-604h720zM120 1560h480v240h964v-964h-600v-240h-844v964zM1688 -128v2048h120v-2048h-120z" />
    <glyph glyph-name="uniE63D" unicode="&#xe63d;" 
d="M1024 792q16 0 30 14t14 30t-14 30t-30 14t-30 -14t-14 -30t14 -30t30 -14zM1023 1000q63 0 114 -49t51 -114t-50 -115t-114 -50t-114 50t-50 114t50 114t113 50zM1344 833q0 131 -96 227t-224 96t-224 -96t-96 -226t96 -224t224 -94q126 0 223 93t97 224zM714 1146
q130 130 310 130t310 -130t130 -308t-126 -310t-314 -132t-314 132t-126 310t130 308zM1024 276q300 0 544 152q245 152 356 408q-117 258 -359 409t-541 151t-541 -152t-359 -408q112 -256 356 -408t544 -152zM1024 1516q338 0 618 -180t402 -480l4 -20l-4 -24
q-124 -298 -403 -477t-617 -179t-617 179t-403 477l-4 24l4 20q122 302 402 481t618 179z" />
    <glyph glyph-name="uniE63E" unicode="&#xe63e;" 
d="M180 -128q-76 0 -125 47t-59 133l4 780h116l4 -780q-6 -16 13 -38t43 -22h1692q26 0 44 22t12 38l4 780h116l4 -780q-10 -86 -60 -133t-124 -47h-1684zM960 356l4 1300l-442 -450l-86 82l588 600l580 -600l-80 -84l-444 452l4 -1300h-124zM522 1206l2 -2h-4z" />
    <glyph glyph-name="uniE63F" unicode="&#xe63f;" 
d="M604 956h120v-848l440 440l84 -88l-584 -584l-588 584l88 88l440 -440v848zM1444 828h-120v856l-440 -440l-84 88l584 584l588 -584l-88 -88l-440 440v-856z" />
    <glyph glyph-name="uniE640" unicode="&#xe640;" 
d="M1444 -8h-840v120h840v-120zM1688 716v724h-1328v-724h1328zM1808 1560v-964h-1568v964h1568zM1928 1628q0 33 -38 48q-9 4 -22 4h-1688q-24 0 -42 -16t-18 -36v-1224q0 -33 38 -48q9 -4 22 -4h1688q24 0 42 16t18 36v1224zM1868 1800q74 0 127 -50t53 -122v-1224
q0 -68 -52 -120t-128 -52h-1688q-76 0 -128 52t-52 120v1224q0 113 110 158q36 14 70 14h1688z" />
    <glyph glyph-name="uniE641" unicode="&#xe641;" 
d="M1611 588q7 0 25 8q72 32 150 231t118 529l8 80q16 156 16 244h-152q-34 -754 -224 -1088l16 24l28 -20q8 -8 15 -8zM120 1680q0 -88 10 -184l14 -140q57 -467 194 -684q37 -59 74 -76q16 -8 23 -6t10 2t7 4l28 20l12 -16q-194 363 -216 1080h-156zM1022 348
q353 0 514 514q110 350 120 938h-1264q12 -558 114 -906q66 -226 190 -386t326 -160zM1084 -8h368v-120h-844v120h356v244q-118 7 -232 80t-188 196l-28 -16q-7 -7 -20 -12l-27 -10q-15 -6 -32 -6q-94 0 -166 91q-178 226 -247 781q-12 77 -17 170l-5 132q-2 66 -2 98v60
h272v120h1504v-120h272v-60q0 -32 -2 -98l-5 -132q-8 -210 -54 -413q-46 -204 -89 -319q-91 -244 -228 -298q-30 -12 -52 -12t-44 8l-20 8q-4 2 -22 8l-28 20q-154 -247 -420 -280v-240z" />
    <glyph glyph-name="uniE642" unicode="&#xe642;" 
d="M1768 232h-1488l16 -120h1456zM140 1272l124 -920h1520l124 924l-416 -352l-464 760l-480 -760zM520 1108l508 804l492 -804l548 460l-208 -1576h-1672l-208 1576z" />
    <glyph glyph-name="uniE643" unicode="&#xe643;" 
d="M1568 772q0 36 -36 54q-12 6 -24 6h-604q-24 0 -42 -18t-18 -42v-368q0 -44 36 -56q11 -4 24 -4h148l276 -232v232h180q60 0 60 60v368zM1688 404q0 -76 -52 -128t-128 -52h-60v-368l-440 368h-104q-76 0 -128 52t-52 128v368q0 72 52 126t128 54h604q117 0 166 -112
q14 -33 14 -68v-368zM2048 780q0 -76 -52 -128t-128 -52h-60v120h60q24 0 42 16t18 44v960q0 24 -18 42t-42 18h-1688q-24 0 -42 -18t-18 -42v-960q0 -41 38 -56q9 -4 22 -4h180v-348l216 188l80 -92l-416 -364v496h-60q-76 0 -128 52t-52 128v960q0 76 52 128t128 52h1688
q76 0 128 -52t52 -128v-960z" />
    <glyph glyph-name="uniE644" unicode="&#xe644;" 
d="M1928 1740q0 24 -18 42t-42 18h-1688q-24 0 -42 -18t-18 -42v-1204q0 -41 38 -56q9 -4 22 -4h180v-352l400 352h1108q24 0 42 16t18 44v1204zM1868 1920q76 0 128 -52t52 -128v-1204q0 -115 -110 -168q-33 -16 -70 -16h-1064l-564 -492v492h-60q-72 0 -126 54t-54 130
v1204q0 76 52 128t128 52h1688z" />
    <glyph glyph-name="uniE645" unicode="&#xe645;" 
d="M1084 956h-724v120h724v-120zM1688 1196h-1328v120h1328v-120zM1688 1440h-1328v120h1328v-120zM1928 1740q0 24 -18 42t-42 18h-1688q-24 0 -42 -18t-18 -42v-1204q0 -41 38 -56q9 -4 22 -4h180v-352l400 352h1108q24 0 42 16t18 44v1204zM1868 1920q76 0 128 -52
t52 -128v-1204q0 -115 -110 -168q-33 -16 -70 -16h-1064l-564 -492v492h-60q-72 0 -126 54t-54 130v1204q0 76 52 128t128 52h1688z" />
    <glyph glyph-name="uniE646" unicode="&#xe646;" 
d="M1824 1780l84 -84l-800 -800l800 -800l-84 -84l-800 800l-800 -800l-84 84l800 800l-800 800l84 84l800 -800z" />
    <glyph glyph-name="uniE647" unicode="&#xe647;" 
d="M1000 1312q-36 0 -36 -100v-616l-120 -4v624q0 164 92 203q38 16 92 13q113 14 162 -110q18 -46 18 -110l-4 -956q0 -50 -24 -102t-68 -84q-110 -86 -216 -78q-112 -8 -204 76q-40 36 -64 86t-24 98v1156q0 245 230 358q80 38 186 34q92 2 173 -28t136 -84
q119 -118 119 -280v-1024l-120 4v1016q0 116 -78 194t-230 86q-225 -11 -281 -182q-15 -46 -15 -98v-1148q0 -54 46 -96t126 -52q84 9 136 54t52 98v948q0 104 -34 104q-11 0 -22 4q-15 -4 -28 -4z" />
    <glyph glyph-name="uniE648" unicode="&#xe648;" 
d="M76 488l952 948l944 -948l-84 -84l-864 860l-856 -860z" />
    <glyph glyph-name="uniE649" unicode="&#xe649;" 
d="M560 1760l84 84l948 -944l-948 -948l-84 88l860 860z" />
    <glyph glyph-name="uniE64A" unicode="&#xe64a;" 
d="M1404 1844l84 -84l-860 -860l860 -860l-84 -88l-948 948z" />
    <glyph glyph-name="uniE64B" unicode="&#xe64b;" 
d="M1024 532l860 856l88 -80l-948 -948l-948 948l88 80z" />
    <glyph glyph-name="uniE64C" unicode="&#xe64c;" 
d="M768 264l988 1512l100 -68l-1064 -1624l-592 528l80 92z" />
    <glyph glyph-name="uniE64D" unicode="&#xe64d;" 
d="M240 112h1448v1112h120v-1232h-1688v1688h1012v-120h-892v-1448zM912 440l-412 412l84 88l308 -312l836 1264l100 -64z" />
    <glyph glyph-name="uniE64E" unicode="&#xe64e;" 
d="M844 842q0 130 68 234h-792v-844h1808v844h-188q40 -60 54 -134t14 -106q0 -130 -65 -242t-176 -177t-241 -65t-241 64q-109 64 -175 180t-66 246zM1688 836q0 148 -106 254t-256 106t-256 -104t-106 -256t106 -256t256 -104t256 106t106 254zM120 1440v-244h888
q136 120 316 120t316 -120h288v244h-1808zM368 1680h348v-120h1332v-1448h-2048v1448h368v120z" />
    <glyph glyph-name="uniE64F" unicode="&#xe64f;" 
d="M604 448q0 -120 86 -206t214 -86q159 0 248 134q28 41 40 90l-584 108v-12l-4 -16v-12zM1808 268h120v1264h-120v-108l-1564 -572v176h-124v-512h124v160l1564 -288v-120zM364 492q0 -63 -58 -88q-19 -8 -38 -8h-172q-63 0 -88 58q-8 19 -8 38v564q0 36 28 66t68 30h172
q40 0 68 -30t28 -66v-32l1324 484v80q0 24 18 44t46 20h232q28 0 46 -20t18 -44v-1380q0 -24 -18 -42t-46 -18h-232q-40 0 -58 36q-6 12 -6 24v80l-380 68q-53 -221 -264 -296q-68 -24 -148 -24q-168 0 -290 120t-122 292v32l4 28l-124 24v-40z" />
    <glyph glyph-name="uniE650" unicode="&#xe650;" 
d="M844 112q48 0 84 36t36 85t-35 86t-69 37t-58 -14t-34 -18t-28 -16l-260 -196h364zM858 476q80 0 154 -69q72 -69 72 -172t-72 -173t-168 -70h-724l548 412q20 12 26 16q84 56 164 56zM1036 628l780 1144l100 -68l-784 -1144z" />
    <glyph glyph-name="uniE651" unicode="&#xe651;" 
d="M1204 536v-188l-360 4v180l120 4v-64l120 4v56zM240 -12l1568 4v600l-1568 4v-608zM120 716l1808 -4v728l-1808 -4v-720zM576 1556l896 4q-115 168 -314 222q-68 18 -134 14q-118 6 -244 -58t-204 -178v-4zM2048 1556v-964l-120 4v-728l-1808 4v720l-120 4v960l436 4
q42 77 106 147t138 113q178 103 344 96q168 7 333 -89t255 -267z" />
    <glyph glyph-name="uniE652" unicode="&#xe652;" 
d="M948 952l-156 -480l564 480h-244l392 604h-556l-200 -604h200zM580 832l284 844h860l-392 -604h352l-1144 -968l244 728h-204z" />
    <glyph glyph-name="uniE653" unicode="&#xe653;" 
d="M1300 1644l-464 -688h588l-460 -872l-108 56l368 696h-616l592 876z" />
    <glyph glyph-name="uniE654" unicode="&#xe654;" 
d="M420 232v120h1208v-120h-312l180 -280l-100 -64l-224 344h-88v-360h-120v360h-88l-224 -344l-100 64l184 280h-316zM240 1560v-964h1568v964h-1568zM964 1920h120v-240h844v-1204h-1808v1204h844v240z" />
    <glyph glyph-name="uniE655" unicode="&#xe655;" 
d="M240 956v-964h1568v964h-1568zM240 1316v-240h1568v240h-240v-76h-124v76h-840v-76h-120v76h-244zM604 1440h840v288q0 47 -46 66q-14 6 -30 6h-688q-51 0 -70 -46q-6 -14 -6 -26v-288zM1568 1440h360v-1568h-1808v1568h364v288q0 76 58 134t138 58h688q80 0 140 -58
t60 -134v-288z" />
    <glyph glyph-name="uniE656" unicode="&#xe656;" 
d="M1640 1240l348 -348l-348 -340l-84 84l196 200l-664 -4l-4 -664l200 196l84 -84l-340 -348l-348 348l92 84l192 -196l4 664l-672 4l204 -200l-92 -84l-340 340l340 348l92 -92l-204 -192l672 -4l-4 672l-192 -204l-92 92l348 340l340 -340l-84 -92l-200 204l4 -672l664 4
l-196 192z" />
    <glyph glyph-name="uniE657" unicode="&#xe657;" 
d="M1084 1652l4 -1512l316 328l88 -84l-468 -476l-460 476l80 84l324 -328l-4 1512l-316 -328l-88 84l468 476l460 -476l-80 -84z" />
    <glyph glyph-name="uniE658" unicode="&#xe658;" 
d="M1452 1276l84 84l476 -464l-476 -464l-84 84l328 320h-1512l328 -320l-84 -84l-476 464l476 464l84 -84l-328 -320h1512z" />
    <glyph glyph-name="uniE659" unicode="&#xe659;" 
d="M1808 552h120v-560h-560v120h352l-696 700l-696 -700h352v-120h-560v560h120v-352l700 696l-700 696v-352h-120v560h560v-120h-352l696 -700l696 700h-352v120h560v-560h-120v352l-700 -696l700 -696v352z" />
    <glyph glyph-name="uniE65A" unicode="&#xe65a;" 
d="M840 1680v120h1088v-1084h-120v880l-1244 -1244l-84 88l1240 1240h-880z" />
    <glyph glyph-name="uniE65B" unicode="&#xe65b;" 
d="M1564 440l-84 -92v4l-1244 1240v-876l-120 -4v1088l1088 -4v-116l-880 -4z" />
    <glyph glyph-name="uniE65C" unicode="&#xe65c;" 
d="M584 612l-84 88l524 524l524 -524l-84 -88l-440 444zM1928 898q0 370 -266 638q-124 124 -288 194t-350 74q-186 -4 -350 -74t-290 -195q-124 -127 -194 -289t-70 -346t70 -352q70 -166 198 -290q126 -124 290 -194q164 -72 346 -68q182 -4 346 68t290 194t196 288
q72 166 72 352zM2048 898q0 -210 -78 -394t-221 -328q-142 -144 -328 -222t-397 -82q-211 4 -397 82t-328 222q-143 144 -221 328t-78 393t79 397t223 330t330 220q186 80 392 76q206 4 392 -76t330 -220q142 -141 222 -329q80 -187 80 -397z" />
    <glyph glyph-name="uniE65D" unicode="&#xe65d;" 
d="M1180 896l-444 440l88 84l524 -524l-524 -524l-88 84zM1026 1800q-186 0 -354 -70q-166 -70 -290 -198q-124 -126 -194 -290q-72 -164 -68 -346q-4 -182 68 -346t194 -290q124 -126 290 -198q166 -70 352 -70q184 0 346 70t289 194q125 124 195 290q70 164 74 350
q-4 186 -74 350t-194 288q-272 266 -634 266zM1022 -128q-210 0 -394 78t-328 221q-144 142 -222 328t-82 397q4 211 82 397t222 328q144 143 328 221t393 78t397 -79t330 -223t220 -330q80 -186 76 -392q4 -206 -76 -392t-220 -330q-141 -142 -329 -222q-187 -80 -397 -80z
" />
    <glyph glyph-name="uniE65E" unicode="&#xe65e;" 
d="M696 896l528 524l84 -84l-440 -440l440 -440l-84 -84zM1928 894q0 186 -70 350t-196 290t-290 196t-348 70t-348 -70t-290 -196t-196 -290t-70 -348t70 -348t196 -290t290 -196t348 -70t348 70t288 194t196 288t72 350zM2048 897q0 -210 -78 -396t-222 -329
q-143 -144 -329 -222t-395 -78t-395 78t-329 222q-144 143 -222 329t-78 395t78 395t222 329q143 144 329 222t395 78t395 -78t328 -221q141 -142 221 -328t80 -396z" />
    <glyph glyph-name="uniE65F" unicode="&#xe65f;" 
d="M584 1180l440 -440l440 440l84 -84l-524 -528l-524 528zM1928 894q0 186 -70 350t-196 290t-290 196t-348 70t-348 -70t-290 -196t-196 -290t-70 -348t70 -348t196 -290t290 -196t348 -70t348 70t288 194t196 288t72 350zM2048 897q0 -210 -78 -396t-222 -329
q-143 -144 -329 -222t-395 -78t-395 78t-329 222q-144 143 -222 329t-78 395t78 395t222 329q143 144 329 222t395 78t395 -78t328 -221q141 -142 221 -328t80 -396z" />
    <glyph glyph-name="uniE660" unicode="&#xe660;" 
d="M284 276l-84 88l824 824l824 -824l-84 -88l-740 744zM1848 948l-84 -88l-740 740l-740 -740l-84 88l824 824z" />
    <glyph glyph-name="uniE661" unicode="&#xe661;" 
d="M1576 896l-740 740l84 84l824 -824l-824 -824l-84 84zM252 1636l84 84l824 -824l-824 -824l-84 84l740 740z" />
    <glyph glyph-name="uniE662" unicode="&#xe662;" 
d="M1616 1720l88 -84l-740 -740l740 -740l-88 -84l-824 824zM208 896l828 824l84 -84l-744 -740l744 -740l-88 -84z" />
    <glyph glyph-name="uniE663" unicode="&#xe663;" 
d="M200 876l84 88l740 -744l740 744l84 -88l-824 -820zM1764 1548l84 -88l-824 -824l-824 824l84 88l740 -744z" />
    <glyph glyph-name="uniE664" unicode="&#xe664;" 
d="M844 556q0 40 -36 76t-83 36t-84 -33t-37 -86t34 -87t86 -34h12q108 27 108 128zM721 308q-101 0 -171 72t-70 168t70 168t174 72q153 0 220 -148q20 -44 20 -82t-8 -68q-34 -124 -150 -168q-37 -14 -85 -14zM604 836v120h120v-120h-120zM844 956h-120v120h120v-120z
M844 1440h-120v-124h120v-120h-120v-120h-120v120h120v120h-120v124h120v120h120v-120zM604 1680h120v-120h-120v120zM1204 1316h396l-396 396v-396zM1808 -128h-1568v2048h924l644 -640v-1408zM724 1680v120h-364v-1808h1328v1204h-604v604h-240v-120h-120z" />
    <glyph glyph-name="uniE665" unicode="&#xe665;" 
d="M1276 28q202 60 374 218q50 46 94 106h-280q-24 -42 -42 -83t-66 -119t-84 -122h4zM970 -4l36 -4h36l32 4h18q24 30 66 82t95 135t75 139h-612q27 -66 95 -170t141 -186h18zM398 246q110 -102 193 -143t177 -75q-83 120 -101 156q-19 36 -45 82t-38 86zM1564 836
q0 -51 -12 -139t-24 -133l-24 -88h316q30 41 42 80t29 87q17 49 22 89t15 104h-364zM1444 836h-844q-4 -44 14 -146t50 -214h716q5 28 22 86q42 138 42 274zM120 836q10 -64 15 -104t22 -89q17 -48 29 -87t42 -80h308q-8 41 -20 86q-12 44 -16 78t-14 93t-6 103h-360z
M1924 956q0 161 -100 360h-320q16 -43 24 -89q8 -47 18 -89t12 -84t10 -98h356zM1444 956q0 136 -42 274q-17 58 -22 86h-716q-3 -11 -21 -68t-23 -93q-4 -37 -14 -96t-6 -103h844zM480 956q-4 44 4 92t12 92t19 92q14 46 21 84h-308q-30 -41 -42 -80t-29 -87
q-17 -49 -22 -89t-15 -104h360zM764 1760q-251 -72 -464 -320h284q12 40 38 86t44 80q16 34 44 74t54 80zM1748 1440q-219 256 -476 324q36 -44 84 -122t66 -119t42 -83h284zM1006 1800l-36 -4h-18q-40 -40 -72 -84l-64 -88q-32 -44 -56 -94t-48 -90h620q-27 46 -51 92
q-25 46 -55 88t-62 88t-76 88h-14l-32 4h-36zM1022 1920q208 0 398 -80t330 -222q138 -144 218 -330t76 -392q4 -206 -76 -392t-218 -330q-140 -144 -330 -222q-190 -80 -398 -80t-393 78q-187 78 -329 222q-142 142 -221 328t-83 396q4 210 83 396t221 328t327 220
q187 80 395 80z" />
    <glyph glyph-name="uniE666" unicode="&#xe666;" 
d="M832 -128q-114 0 -222 47t-194 131q-172 168 -180 426q8 212 132 372t320 208l28 -116q-161 -44 -262 -180t-94 -284q-8 -191 140 -342q64 -66 154 -104t182 -38q174 0 304 102t172 278l116 -24q-37 -204 -203 -340t-393 -136zM839 1560q105 0 125 120q-8 56 -42 88
t-81 32t-85 -37t-32 -83q-8 -44 28 -82t87 -38zM838 1920q106 0 178 -74t64 -166q8 -74 -42 -140t-138 -96l28 -480l444 108l24 -116l-456 -116l16 -244h728l112 -496l132 -124h-228l-112 496h-748l-60 976q-163 43 -180 232q13 165 146 222q42 18 92 18z" />
    <glyph glyph-name="uniE667" unicode="&#xe667;" 
d="M1928 112v240h-1808v-240h1808zM2048 476v-484h-2048v484h2048zM1928 836v240h-1808v-240h1808zM2048 1196v-480h-2048v480h2048zM120 1800v-240h1808v240h-1808zM2048 1440h-2048v480h2048v-480z" />
    <glyph glyph-name="uniE668" unicode="&#xe668;" 
d="M1928 112v240h-1204v-240h1204zM360 112v240h-240v-240h240zM2048 476v-484h-1444v484h1444zM480 476v-484h-480v484h480zM1928 836v240h-1204v-240h1204zM360 836v240h-240v-240h240zM2048 1196v-480h-1444v480h1444zM480 1196v-480h-480v480h480zM724 1800v-240h1204
v240h-1204zM360 1560v240h-240v-240h240zM2048 1440h-1444v480h1444v-480zM480 1920v-480h-480v480h480z" />
    <glyph glyph-name="uniE669" unicode="&#xe669;" 
d="M1928 -8v604h-604v-604h604zM724 -8v604h-604v-604h604zM2048 716v-844h-844v844h844zM844 716v-844h-844v844h844zM1324 1800v-604h604v604h-604zM724 1196v604h-604v-604h604zM2048 1076h-844v844h844v-844zM844 1920v-844h-844v844h844z" />
    <glyph glyph-name="uniE66A" unicode="&#xe66a;" 
d="M1204 1196h-120v244h844v-244h-120v120h-240v-964h120v-120h-364v120h120v964h-240v-120zM240 1196h-120v244h844v-244h-120v120h-240v-964h120v-120h-364v120h120v964h-240v-120z" />
    <glyph glyph-name="uniE66B" unicode="&#xe66b;" 
d="M0 -128v120h2048v-120h-2048zM1084 352h-120v1364l-440 -440l-84 84l584 584l584 -584l-84 -84l-440 440v-1364z" />
    <glyph glyph-name="uniE66C" unicode="&#xe66c;" 
d="M1808 112v-120h-1568v120h1568zM1444 1680v120h364v-120h-120v-780q0 -134 -51 -254t-143 -212t-214 -142q-122 -52 -256 -52t-256 52t-214 142q-92 92 -143 212t-51 254v780h-120v120h364v-120h-124v-780q0 -144 73 -268t199 -198t272 -74t272 74t199 198t73 268v780
h-124z" />
    <glyph glyph-name="uniE66D" unicode="&#xe66d;" 
d="M1566 -8q50 0 86 36t36 83t-33 84t-89 37t-89 -38t-33 -84t36 -82t86 -36zM482 -8q50 0 86 36t36 83t-33 84t-89 37t-89 -38t-33 -84t36 -82t86 -36zM724 716v360h-256l-108 -360h364zM1549 352q156 0 223 -116h156v1204h-1084v-844h-724v-360h156q26 48 82 82t107 34
q156 0 223 -116h672q26 48 82 82t107 34zM240 116h-240v600h232l144 480h348v364h1324v-1444h-240v-4q0 -96 -70 -168t-170 -72q-157 0 -224 148q-20 45 -20 92v4h-600v-4q0 -96 -70 -168t-174 -72q-153 0 -220 148q-20 45 -20 92v4z" />
    <glyph glyph-name="uniE66E" unicode="&#xe66e;" 
d="M964 1196h120v-360h484v-120h-604v480zM1023 -8q159 0 303 61t252 169t169 250t61 302t-61 304t-169 252t-252 169t-302 61t-302 -61t-252 -169t-169 -252t-61 -304t61 -302t169 -250t251 -168q144 -62 302 -62zM1928 774q0 -182 -70 -346t-196 -290t-290 -196t-348 -70
t-348 70t-290 196t-196 290t-70 344q0 358 246 622q115 122 269 196t329 86v124h-180v120h480v-120h-180v-124q175 -12 329 -86t268 -195q115 -123 181 -281t66 -340z" />
    <glyph glyph-name="uniE66F" unicode="&#xe66f;" 
d="M1444 112v724h-840v-724h188q16 76 80 128t150 52t152 -48t82 -132h188zM604 1680v-724h840v724h-188q-16 -76 -80 -128t-150 -52t-152 48t-82 132h-188zM1144 1800h424v-1808h-424v60q0 41 -30 80t-86 40q-56 0 -90 -36t-34 -84v-60h-424v1808h424v-60q0 -40 30 -80
t86 -40t90 36t34 84v60z" />
    <glyph glyph-name="uniE670" unicode="&#xe670;" 
d="M1692 592q56 0 56 72q0 26 -7 37t-28 11h-133q-96 0 -96 56q0 28 18 46t42 18h200q39 0 58 40q6 12 6 28t-18 36t-46 20h-540q-34 0 -48 27q-2 5 -7 13t-5 16q0 9 4 16l60 328q16 48 16 100t-12 68q0 12 -17 18t-23 6q-30 0 -68 -56l-392 -628q-17 -32 -48 -32h-312
q-31 0 -54 38q-6 10 -6 28t20 38t40 20h276l372 600q75 112 170 112t146 -84q28 -41 28 -98t-6 -92l-58 -318h464q76 0 130 -52t54 -136t-76 -140q6 -10 9 -34l5 -34q2 -16 2 -28q0 -91 -76 -148q8 -12 13 -27t8 -21t3 -20v-24q0 -100 -92 -156q12 -24 12 -48t4 -36
q0 -132 -110 -170q-29 -10 -78 -10h-680q-112 0 -196 84l-24 16t-20 14t-28 10h-252q-60 0 -60 60q0 36 36 54q12 6 24 6h252q20 0 32 -3t18 -5t14 -5l12 -6q4 -3 11 -7q9 -6 18 -13q9 -8 33 -24q24 -15 36 -25q42 -36 94 -36h526q176 0 185 2t13 6t8 4q12 12 12 24v20
q0 46 -22 55t-102 9h-12q-31 0 -54 38q-6 10 -6 28t18 36t42 18h152q26 0 45 16t19 44q0 60 -84 60h-92q-20 0 -40 16t-20 44t16 44t44 16h172z" />
    <glyph glyph-name="uniE671" unicode="&#xe671;" 
d="M496 1560q-64 0 -64 -49q0 -35 20 -55t100 -20h16q36 0 54 -36q6 -12 6 -30t-18 -36t-42 -18h-152q-64 0 -64 -60q0 -28 24 -44t60 -16h92q60 0 60 -60q0 -36 -36 -54q-12 -6 -24 -6h-172q-28 0 -35 -8t-9 -11q-2 -1 -2 -5q-2 -4 -6 -14t-4 -22t22 -30t62 -30h120
q36 0 54 -36q6 -12 6 -30t-18 -36t-42 -18h-200q-32 0 -40 -12t-16 -22q-8 -11 -8 -30q0 -20 20 -40t44 -20h550q22 0 42 -30q4 -4 4 -10t2 -15t-2 -13l-60 -332q-16 -47 -16 -99t12 -69q0 -8 14 -14t26 -6q34 0 68 52l388 632q28 28 52 28h312q32 0 50 -32q2 -4 6 -10
t4 -24t-18 -36t-42 -18h-276l-372 -600q-54 -91 -150 -110q-50 -10 -107 20q-87 44 -87 182q0 74 16 128l48 256h-464q-72 0 -128 54t-56 127q0 103 92 159q-32 32 -32 72q0 107 76 164q-8 9 -16 32t-8 36v24q0 98 96 156q-20 63 -20 92q0 30 14 66q43 106 174 106h680
q93 0 199 -85q5 -3 15 -11t12 -10q3 -2 9 -8q14 -10 33 -10h252q16 0 38 -16t22 -44t-18 -44t-42 -16h-252q-60 0 -112 40l-32 24q-80 60 -124 60h-680z" />
    <glyph glyph-name="uniE672" unicode="&#xe672;" 
d="M360 1316v368l1328 -4v-360l-120 -4v248l-484 -4v-1444l200 -4v-116l-520 -4v124l200 -4v1452l-484 -4v-240z" />
    <glyph glyph-name="uniE673" unicode="&#xe673;" 
d="M0 -128v120h2048v-120h-2048zM1440 1440v120h488v-488h-120v276l-676 -752l-504 364l-456 -412l-80 88l528 476l496 -356l612 684h-288z" />
    <glyph glyph-name="uniE674" unicode="&#xe674;" 
d="M2048 -128h-2048v120h2048v-120zM1812 900h120v-484h-488v120h288l-612 680l-496 -356l-528 476l80 88l456 -408l504 364l676 -756v276z" />
    <glyph glyph-name="uniE675" unicode="&#xe675;" 
d="M964 592h120v-456l200 200l84 -84l-344 -344l-344 344l84 84l200 -200v456zM2048 836h-2048v120h2048v-120zM1084 1200h-120v456l-200 -200l-84 84l344 344l344 -344l-84 -84l-200 200v-456z" />
    <glyph glyph-name="uniE676" unicode="&#xe676;" 
d="M1328 836v120h456l-200 200l84 84l344 -344l-344 -344l-84 84l200 200h-456zM720 956v-120h-456l200 -200l-84 -84l-344 344l344 344l84 -84l-200 -200h456zM1084 1920v-2048h-120v2048h120z" />
    <glyph glyph-name="uniE677" unicode="&#xe677;" 
d="M120 964h-120v244h844v-244h-120v120h-244v-964h124v-120h-364v120h120v964h-240v-120zM844 1368h-120v312h1324v-312h-120v192h-484v-1448h124v-120h-364v120h120v1448h-480v-192z" />
    <glyph glyph-name="uniE678" unicode="&#xe678;" 
d="M1084 -8h-120v360h120v-360zM1620 216l-256 256l84 84l256 -256zM428 216l-84 84l256 256l84 -84zM1568 836v120h360v-120h-360zM120 956h360v-120h-360v120zM1024 596q124 0 212 88t88 212t-88 212t-212 88t-212 -88t-88 -212t88 -212t212 -88zM1024 1316
q176 0 298 -122t122 -298t-122 -298t-298 -122t-298 122t-122 298t122 298t298 122zM1620 1576l84 -84l-256 -256l-84 84zM428 1576l256 -256l-84 -84l-256 256zM964 1800h120v-360h-120v360z" />
    <glyph glyph-name="uniE679" unicode="&#xe679;" 
d="M0 836v120h1360l-440 440l88 84l584 -584l-584 -584l-88 84l440 440h-1360zM2048 -128h-120v2048h120v-2048z" />
    <glyph glyph-name="uniE67A" unicode="&#xe67a;" 
d="M2048 956v-120h-1360l440 -440l-88 -84l-584 584l584 584l88 -84l-440 -440h1360zM120 1920v-2048h-120v2048h120z" />
    <glyph glyph-name="uniE67B" unicode="&#xe67b;" 
d="M240 968q0 -294 288 -552q192 -172 436 -276v1336q-86 -86 -182 -126t-178 -34q-86 -6 -182 34t-182 126v-508zM1808 1480q-123 -152 -364 -168q-118 9 -213 56t-147 112v-1340q209 98 297 161q89 63 143 113q117 108 200 244zM1928 972q0 -326 -270 -598
q-72 -73 -198 -164q-126 -90 -268 -152t-152 -62l-20 -12l-20 12q-14 0 -163 68t-306 190q-157 120 -284 297t-127 417v828l120 -4q0 -69 28 -137t78 -115q116 -111 258 -104q139 -8 254 104q50 47 78 115t28 137l120 4q0 -147 102 -251t258 -113q160 10 261 112t103 248
l120 4v-824z" />
    <glyph glyph-name="uniE67C" unicode="&#xe67c;" 
d="M1506 1440q26 0 44 18t18 40t-20 42t-41 20q-23 0 -43 -20t-20 -41q0 -23 18 -41t44 -18zM1024 1440q60 0 60 64q0 20 -18 38t-42 18t-42 -18t-18 -38q0 -64 60 -64zM542 1440q26 0 44 18t18 40t-20 42t-41 20q-23 0 -43 -20t-20 -41q0 -23 18 -41t44 -18zM240 1800
v-1808h1568v1808h-240v-132q75 -25 110 -114q10 -24 10 -60q0 -70 -56 -124t-126 -54t-126 54t-56 133t74 139q24 19 46 26v132h-360v-132q48 -14 84 -62t36 -114q0 -68 -54 -122t-126 -54t-126 54t-54 134t70 138q24 19 50 26v132h-360v-132q75 -25 110 -114q10 -24 10 -60
q0 -70 -55 -124t-125 -54t-127 53t-57 133t74 140q24 19 46 26v132h-240zM1928 -128h-1808v2048h1808v-2048z" />
    <glyph glyph-name="uniE67D" unicode="&#xe67d;" 
d="M1054 276q-14 0 -30 -4q-555 18 -832 172l-18 12q-12 8 -21 12t-16 11t-17 13v-196q0 -112 257 -204t647 -100v4q332 -8 646 96q118 38 188 94t70 106v204q-6 -10 -16 -16l-18 -12q-12 -9 -22 -13t-16 -15q-370 -160 -708 -160q-14 -4 -31 -2t-33 0t-30 -2zM120 700
q0 -71 132 -152v4q77 -49 216 -88t241 -50t199 -18q14 4 29 2t30 0t28 -2t29 0q181 -6 401 36t371 116q98 61 124 112q8 18 8 40v192q-10 -6 -17 -13t-16 -11t-21 -12t-18 -8q-250 -152 -832 -172q-582 20 -832 172q-6 0 -18 8t-21 12t-16 11t-17 13v-192zM120 1096
q0 -42 26 -65q67 -59 106 -79q219 -137 772 -156q551 18 772 156q48 22 90 64t42 80v200q-6 -6 -16 -12l-18 -12q-12 -9 -22 -13t-16 -15q-162 -82 -394 -126t-438 -38q-206 -6 -438 38t-394 126q-6 11 -16 15t-22 13l-18 12q-10 6 -16 12v-200zM120 1500q0 -40 26 -66
q62 -62 106 -78q226 -140 772 -160q546 20 772 160q48 19 90 63t42 90q0 47 -68 99t-190 96q-258 93 -646 100q-390 -8 -647 -100t-257 -204zM0 1500q0 124 138 220q277 191 886 204q610 -14 886 -204q138 -96 138 -220v-14l-8 -42l8 -4v-1144q0 -124 -138 -220
q-277 -191 -886 -204q-610 14 -886 204q-138 96 -138 220v1144l8 4l-8 42v14z" />
    <glyph glyph-name="uniE67E" unicode="&#xe67e;" 
d="M1592 788q124 0 214 90t90 216t-90 214t-214 88t-214 -88t-90 -214t90 -216t214 -90zM454 788q126 0 216 90t90 216t-90 214t-216 88t-214 -88t-88 -214t88 -216t214 -90zM1592 1520q176 0 300 -124t124 -304v-8q-28 -416 -232 -665q-55 -67 -120 -117
q-118 -93 -218 -122l-98 -28l-16 120q9 0 70 17q147 41 292 203q82 91 138 248q-126 -72 -227 -72q-189 0 -313 124t-124 302t124 302t300 124zM476 668q-196 0 -320 124t-124 302t124 302t298 124t300 -126t126 -302v-8q-28 -416 -232 -665q-55 -67 -120 -117
q-118 -93 -218 -122l-98 -28l-16 120q10 0 69 17q142 41 291 203q83 90 136 248q-108 -72 -216 -72z" />
    <glyph glyph-name="uniE67F" unicode="&#xe67f;" 
d="M1590 884q-130 0 -222 -94t-84 -214q-8 -116 84 -210t218 -94t213 86q88 86 97 218q-13 205 -190 284q-54 24 -116 24zM450 272q130 0 222 94t84 210q7 120 -84 214t-217 94q-127 0 -215 -86t-96 -222q13 -202 190 -280q54 -24 116 -24zM1592 1004q83 0 161 -34t135 -92
q131 -136 124 -302q4 -107 -52 -205q-56 -99 -156 -159t-216 -60q-172 0 -296 122t-132 302q4 4 2 4l2 2q4 2 2 4t2 2h-8q43 543 354 782q121 94 218 120t104 30l8 -120q0 -4 -60 -18q-144 -34 -296 -204q-83 -94 -136 -250q26 26 100 51t136 25h4zM477 1004q64 0 140 -34
t135 -92q120 -116 128 -302q-8 -180 -132 -302t-300 -122q-83 0 -161 34t-135 92q-131 137 -124 298q-4 4 -2 4t0 2t0 4t-2 2h4q28 525 350 782q118 95 218 120t100 30l16 -120q-7 -4 -68 -19q-62 -15 -140 -66q-192 -125 -292 -387q106 76 265 76z" />
    <glyph glyph-name="uniE680" unicode="&#xe680;" 
d="M2048 956v-120h-400l-136 316l-432 -1232l-476 1552l-200 -636h-404v120h316l288 928l484 -1580l412 1180l228 -528h320z" />
    <glyph glyph-name="uniE681" unicode="&#xe681;" 
d="M604 232h480v-120h-480v120zM604 476h720v-124h-720v124zM480 584v-604h1088v604h-1088zM480 956h124v-120h-124v120zM240 956h120v-120h-120v120zM1688 704v-352h240v724h-1808v-724h240v352h1328zM1204 1440h280l-280 260v-260zM1084 1316v484h-604v-604h1084v120h-480
zM1684 1196h364v-964h-360v-372h-1328v372h-360v964h360v724h784l540 -504v-220z" />
    <glyph glyph-name="uniE682" unicode="&#xe682;" 
d="M1928 761q0 -171 -71 -335t-195 -288t-290 -196q-164 -70 -348 -70t-348 70t-290 196q-124 124 -195 288t-71 334q0 326 198 576t510 324l28 -120q-130 -27 -244 -99t-198 -175q-174 -216 -174 -490q0 -162 61 -304t169 -250t252 -169t302 -61t302 61t252 169t168 250
q62 142 62 310t-80 334t-220 277t-316 147l28 116q307 -65 508 -315q200 -250 200 -580zM964 716v1204h120v-1204h-120z" />
    <glyph glyph-name="uniE683" unicode="&#xe683;" 
d="M1084 -128h-120v360h60q-134 0 -256 48t-214 130q-194 177 -194 426v604h1328v-604q0 -249 -194 -426q-92 -82 -214 -130t-256 -48h60v-360zM724 836h600v-120h-600v120zM724 1076h600v-120h-600v120zM1568 1316h-1088v-480q0 -130 74 -242t198 -176q126 -66 272 -66
t272 66t198 176q74 112 74 242v480zM1204 1920h120v-360h-120v360zM724 1920h120v-360h-120v360z" />
    <glyph glyph-name="uniE684" unicode="&#xe684;" 
d="M1208 1076h716q-8 138 -67 266t-157 226q-204 204 -492 228v-720zM1020 -8q-180 0 -345 70q-164 70 -289 196q-126 125 -196 289t-70 343t63 337t179 283q116 126 268 200t326 86l8 -120q-150 -12 -282 -77t-232 -171t-155 -244t-55 -292t62 -298t168 -252
q108 -108 252 -169t324 -61t356 98t284 267q108 168 118 367l120 -8q-24 -356 -282 -598q-122 -114 -282 -180t-340 -66zM2048 956h-960v964h60q180 0 344 -70t292 -196q126 -124 195 -288t69 -350v-60z" />
    <glyph glyph-name="uniE685" unicode="&#xe685;" 
d="M964 964v712h-364q-144 0 -250 -104t-106 -252t106 -252t250 -104h364zM1928 1796v-120h-480v-1684h-120v1684h-244v-1684h-120v852h-364q-94 0 -182 38t-154 102q-140 140 -140 336t140 336q66 64 154 102t182 38h1328z" />
    <glyph glyph-name="uniE686" unicode="&#xe686;" 
d="M1506 612q-38 0 -66 -28t-28 -64t27 -66t65 -30t66 27q30 27 30 66t-28 67t-66 28zM636 892q0 32 -27 64t-66 32t-67 -28t-28 -64t26 -66t68 -30q44 0 69 30t25 62zM1026 1244q-34 0 -66 -26t-32 -66t28 -68t68 -28t68 28t28 64t-30 66t-64 30zM1292 507q0 160 152 217
v716h124v-716q72 -28 112 -82t40 -113q0 -101 -62 -163t-151 -62t-152 62t-63 141zM808 1168q0 56 45 111q45 56 111 73v88h120v-88q106 -27 144 -134q12 -34 12 -86t-44 -111t-112 -77v-592h-120v592q-103 25 -144 136q-12 32 -12 88zM328 911q0 55 45 113t107 72v344h124
v-344q60 -14 106 -72t46 -128t-42 -131t-110 -77v-336h-124v336q-98 26 -140 136q-12 32 -12 87zM120 1800v-1808h1808v1808h-1808zM2048 -128h-2048v2048h2048v-2048z" />
    <glyph glyph-name="uniE687" unicode="&#xe687;" 
d="M1928 1408l-844 -316v-1076l844 316v1076zM964 16v1076l-844 316v-1076zM544 1612l-312 -116l792 -300l312 120zM716 1676l788 -296l312 116l-792 300zM0 248v1288l1028 388l1020 -388v-1288l-1024 -384z" />
    <glyph glyph-name="uniE688" unicode="&#xe688;" 
d="M736 208q101 0 168 74t60 158q7 86 -59 159t-163 73t-163 -64t-75 -168q14 -156 144 -214q40 -18 88 -18zM1088 446q0 -2 4 -6q-9 -152 -111 -252t-245 -100q-68 0 -134 28t-112 76q-110 114 -102 248q-8 134 102 248q44 46 110 75t132 29t116 -18q49 -18 120 -70
l-4 1188l868 -400l-52 -108l-692 320l-4 -1244q4 -4 2 -6t0 -4t2 -4z" />
    <glyph glyph-name="uniE689" unicode="&#xe689;" 
d="M1696 -8q96 0 164 68t68 166t-70 162t-164 64t-160 -66t-66 -160t66 -164t162 -70zM491 284q95 0 160 61t73 155v24q-12 144 -144 202q-40 18 -88 18q-100 0 -164 -70t-64 -164t66 -160t161 -66zM1928 1528l-1084 212v-356l1084 -212v356zM1344 224q0 144 104 248
t248 104q53 0 121 -24t111 -68v564l-1084 212v-760q-8 -144 -110 -240t-246 -96t-244 100t-100 248q0 146 101 249t237 103t242 -88v1112l1324 -260v-1412q-8 -144 -106 -244t-244 -100t-250 104t-104 248z" />
    <glyph glyph-name="uniE68A" unicode="&#xe68a;" 
d="M1084 1316q0 60 -68 60q-20 0 -36 -16t-16 -44v-240q0 -20 14 -40t44 -20t46 18t16 42v240zM1024 1500q72 0 126 -54t54 -130v-240q0 -76 -52 -128t-128 -52t-128 52t-52 128v240q0 115 110 168q33 16 70 16zM1568 1256q0 224 -160 384t-384 160t-384 -160t-160 -384
v-720q0 -224 160 -384t384 -160t384 160t160 384v720zM1022 1920q136 0 258 -52t214 -142q194 -194 194 -470v-720q0 -276 -194 -470q-92 -90 -214 -142t-256 -52t-256 52t-214 142q-194 194 -194 470v720q0 276 194 470q88 90 210 142t258 52z" />
    <glyph glyph-name="uniE68B" unicode="&#xe68b;" 
d="M1024 -8q224 0 384 160t160 384v540h-1088v-540q0 -224 160 -384t384 -160zM1084 1196h484v60q0 208 -140 360t-344 176v-596zM480 1196h484v596q-127 -10 -238 -84q-110 -74 -178 -194t-68 -258v-60zM1022 1920q136 0 258 -52t214 -142q194 -194 194 -470v-720
q0 -276 -194 -470q-92 -90 -214 -142t-256 -52t-256 52t-214 142q-194 194 -194 470v720q0 276 194 470q88 90 210 142t258 52z" />
    <glyph glyph-name="uniE68C" unicode="&#xe68c;" 
d="M1324 446q0 150 -108 226l-132 100v-592q100 16 170 94t70 172zM724 1358q0 -82 20 -128t76 -102l144 -108v592q-98 -15 -169 -93q-71 -79 -71 -161zM1444 456q0 -233 -218 -352q-67 -37 -142 -44v-188h-120v188q-150 16 -255 131t-105 265h120q0 -156 144 -242
q46 -27 96 -34v688l-220 168h-4v4q-136 118 -136 282t105 279q105 116 255 131v188h120v-188q148 -15 254 -128t106 -268l-60 -8l-60 8q0 156 -144 242q-46 27 -96 34v-688l200 -152h4v-4h4q152 -135 152 -312z" />
    <glyph glyph-name="uniE68D" unicode="&#xe68d;" 
d="M1688 1076h120v-392q0 -119 -72 -223q-72 -105 -198 -167t-274 -62h-180v-360h-120v360h-180q-148 0 -274 62t-198 167q-72 104 -72 223v392h120v-392q0 -134 128 -233t296 -99h480q168 0 296 99t128 233v392zM1444 1196h-840v-180q0 -176 122 -298t298 -122t298 122
t122 298v180zM604 1316h840v60q0 176 -120 296v-232h-120v316q-22 14 -62 25t-58 11v-352h-120v352q-30 0 -68 -12t-52 -24v-316h-120v232q-120 -120 -120 -296v-60zM1024 476q-146 0 -272 74t-199 198t-73 268v360q0 208 142 364t342 172v8h120v-8q131 -10 242 -84
q110 -74 176 -195q66 -120 66 -257v-360q0 -220 -160 -380t-384 -160z" />
    <glyph glyph-name="uniE68E" unicode="&#xe68e;" 
d="M1928 352v-236l-1808 -4v244zM1928 960v-244l-1808 4v236zM120 1316v248l1808 -4v-240z" />
    <glyph glyph-name="uniE68F" unicode="&#xe68f;" 
d="M1928 476v-244h-1324v244h1324zM239 476q47 0 84 -33t37 -89t-38 -89t-83 -33q-47 0 -83 35t-36 86t36 87t83 36zM1928 1076v-240h-1324v240h1324zM238 1076q46 0 84 -33t38 -87t-38 -87t-84 -33t-82 36t-36 84t36 84t82 36zM604 1440v240h1324v-240h-1324zM239 1680
q47 0 84 -33t37 -89t-36 -87t-84 -31q-50 0 -85 33t-35 84t36 87t83 36z" />
    <glyph glyph-name="uniE690" unicode="&#xe690;" 
d="M1320 1276l4 -1080l480 144l4 1076zM1200 200l4 1076l-484 140l4 -1080zM604 352l-4 1088h-480l-4 -1088h488zM0 1560l672 -4l592 -172l660 196l4 -1332l-660 -192l-624 176h-648z" />
    <glyph glyph-name="uniE691" unicode="&#xe691;" 
d="M724 216l480 -132v548l-74 98q-232 308 -278 558zM1324 76l484 148v1088l-132 -24q-19 -122 -107 -289t-145 -238q-56 -71 -100 -129v-556zM604 232v1088l-484 -4v-1080zM1220 1365q0 -16 8 -21q8 -4 12 -8t10 -8t14 0q8 -5 13 -1q5 3 18 13t13 26t-10 29t-19 15
q-8 2 -15 6q-7 -4 -17 -6q-11 -2 -19 -16q-8 -13 -8 -29zM1428 1374q0 -68 -42 -114t-122 -56q-76 9 -120 57t-44 111q0 28 14 60t36 52q60 56 114 48q60 6 112 -42t52 -116zM964 1372q0 -127 102 -318t198 -298q104 114 204 300t100 314t-85 216q-85 90 -219 98
q-195 -14 -276 -188q-24 -52 -24 -124zM1804 1436l4 -4v8l120 4v-1316l-656 -188l-628 172l-644 4v1324l724 4v-8l124 -24q5 104 65 196q61 92 155 144t196 48q158 8 280 -104t140 -280z" />
    <glyph glyph-name="uniE692" unicode="&#xe692;" 
d="M1468 1440q240 0 410 -178t170 -426t-170 -426t-410 -178h-508l196 -196l-84 -88l-344 344l344 344l84 -84l-196 -200h508q192 0 326 142t134 343q0 132 -62 242q-62 109 -168 173t-230 64v124zM120 837q0 -131 61 -243t167 -177t232 -65v-120q-240 0 -410 178t-170 426
t170 426t410 178h508l-196 196l84 84l344 -344l-344 -340l-84 84l196 196h-508q-124 0 -230 -64t-168 -173q-62 -110 -62 -242z" />
    <glyph glyph-name="uniE693" unicode="&#xe693;" 
d="M1024 940q100 0 170 70t70 172t-70 170t-170 68t-170 -68t-70 -170t70 -172t170 -70zM1024 1540q152 0 256 -104t104 -252t-102 -256t-258 -108t-258 108t-102 256t104 252t256 104zM1024 1740q-218 0 -381 -158t-163 -404q0 -312 348 -825q93 -137 196 -265
q183 226 294 416q250 427 250 673q0 247 -163 405t-381 158zM1022 1860q136 0 258 -52t214 -142q194 -194 194 -470q0 -325 -300 -808q-114 -182 -211 -302t-109 -134l-44 -52l-44 52q-12 12 -110 134q-246 306 -416 698q-94 215 -94 384q0 304 194 498q88 90 210 142
t258 52z" />
    <glyph glyph-name="uniE694" unicode="&#xe694;" 
d="M2048 476v-120l-1444 -4v128zM240 421q0 18 -11 32q-11 13 -20 17t-17 6t-12 4q-60 -20 -60 -64q0 -32 10 -38t25 -16q14 -10 25 -6q12 -5 32 9t24 26t4 30zM360 419q0 -73 -48 -125t-132 -62q-84 10 -132 62t-48 126t56 128q56 56 124 48q68 8 124 -48t56 -129z
M2048 960v-124l-1444 4v116zM240 901q0 29 -20 45t-40 10q-11 4 -22 -2l-24 -14q-14 -8 -14 -38t14 -44t24 -16q10 -1 22 -6q12 4 24 6t24 16t12 43zM360 900q0 -80 -56 -133t-124 -47q-68 -8 -124 46t-56 130t47 125t133 59q123 -12 166 -112q14 -33 14 -68zM604 1316v128
l1444 -4v-120zM120 1382q0 -34 10 -40t25 -16q14 -10 25 -6q12 -5 36 12t24 44t-11 41t-20 17q-9 4 -17 6t-12 4q-60 -19 -60 -62zM360 1383q0 -73 -48 -125t-132 -62q-82 9 -131 60q-49 50 -49 124t55 131t125 49q68 8 124 -48t56 -129z" />
    <glyph glyph-name="uniE695" unicode="&#xe695;" 
d="M1144 -8q24 0 42 18t18 50v196h-360v-196q0 -44 36 -62q12 -6 24 -6h240zM1568 1230q0 106 -44 211t-118 187q-159 172 -382 172q-145 0 -271 -80q-125 -80 -199 -213q-74 -132 -74 -280q0 -226 126 -419q32 -48 86 -120q124 -164 148 -312h368q19 131 110 256
q30 43 56 78l66 92q128 180 128 428zM1023 1920q135 0 257 -55t213 -150t143 -223t52 -256q0 -314 -189 -561q-12 -16 -41 -53l-42 -54q-92 -119 -92 -252v-256q0 -80 -52 -134t-128 -54h-240q-120 0 -166 114q-14 36 -14 74v252q0 80 -29 140t-115 184q-108 140 -164 270
t-56 288q0 318 194 520q90 94 212 150t257 56z" />
    <glyph glyph-name="uniE696" unicode="&#xe696;" 
d="M844 112v-120h-364v120h136l684 1564h-96v120h364v-120h-136l-684 -1564h96z" />
    <glyph glyph-name="uniE697" unicode="&#xe697;" 
d="M1084 1216v-1016h216v-120h-552v120h216v896h-212v120h332zM1148 1620q0 -72 -53 -130t-131 -58t-133 55t-55 129t55 131t130 57t131 -56t56 -128z" />
    <glyph glyph-name="uniE698" unicode="&#xe698;" 
d="M460 476q-76 0 -164 38t-155 103q-141 137 -141 339q0 130 65 242t175 177t247 65q136 0 275 -92q45 -30 74 -68v4l452 -556q43 -58 118 -95t154 -37q152 0 260 102t108 257q0 153 -107 257t-263 104t-258 -116l-116 -144l-92 76l112 144q164 164 362 164t340 -142
t142 -342q0 -98 -39 -188t-104 -154t-153 -100q-88 -38 -184 -38q-218 0 -372 172l-4 4v2q0 2 -2 2h-2l-436 540q-104 120 -261 120t-264 -104t-107 -256t106 -256t254 -104q182 0 284 136v-4l100 124l92 -76l-96 -124h-4q-141 -176 -396 -176z" />
    <glyph glyph-name="uniE699" unicode="&#xe699;" 
d="M1204 840l484 -4v-116l-484 -4v124zM1204 1076l604 4v-124l-604 4v116zM992 1100q-4 0 -8 -17t-4 -37v-50q33 -33 12 -116q-5 -17 -11 -25q-7 -9 -13 -19t-18 -18t-22 -32q-9 -24 -24 -50q-15 -25 -24 -28v-52q160 -23 276 -127t116 -229l-120 -8q0 184 -340 260h-52v212
l24 12q6 10 11 15t11 17l14 26q7 13 12 38l16 40l12 80v28q-9 54 12 106q4 8 4 14t4 10q-16 30 -51 40t-57 8t-32 2q-14 -4 -21 -2t-11 -4t-7 -6t-22 -32t-59 -32l-16 -4v-4q-4 -11 -4 -22v-92l4 -26l8 -72h16v-32q10 -26 15 -42t19 -33t18 -17l28 -24v-200l-52 -8
q-130 -8 -239 -84t-109 -168v-4l-120 8q0 188 240 308q71 35 160 52v40q-11 7 -22 24l-18 28q-8 14 -16 38t-20 31q-12 8 -18 17q-6 10 -12 16t-10 22q-28 42 -6 100q6 16 14 24v48q0 122 46 164q23 20 66 32q34 50 74 63t66 9q88 14 160 -22t104 -110q12 -47 4 -60t-8 -24z
M120 1444v-1212l1808 4v1204zM2048 112l-2048 4v1444l2048 4v-1452z" />
    <glyph glyph-name="uniE69A" unicode="&#xe69a;" 
d="M948 868v-876h152v876h-152zM604 1800v-240h888l-220 240h-668zM1084 1440v-452h136v-1116h-392v1116h136v452h-484v480h848l432 -480h-676z" />
    <glyph glyph-name="uniE69B" unicode="&#xe69b;" 
d="M1208 596h-364l4 -604h356zM1324 716l4 -724h360l4 1084h116l4 -1204h-1572l4 1204h116l4 -1084h360l4 724h596zM24 1140l1004 736l996 -736l-68 -96l-932 680l-924 -680z" />
    <glyph glyph-name="uniE69C" unicode="&#xe69c;" 
d="M1244 132q0 -80 -58 -138t-140 -58t-140 58t-58 138t56 138t140 58t142 -58t58 -138zM944 600q0 212 146 352q10 10 92 84t130 140t76 164q0 120 -76 220q-64 80 -174 112q-42 12 -90 12q-236 0 -338 -166q-39 -63 -46 -116l-8 -58l-120 4l10 72q11 80 64 164t151 152
t277 68t298 -98t160 -246q49 -185 -82 -351q-62 -81 -132 -143t-105 -98q-37 -36 -75 -94t-38 -174h-120z" />
    <glyph glyph-name="uniE69D" unicode="&#xe69d;" 
d="M1928 776q0 24 -18 42t-42 18h-60v-604h60q18 0 39 18t21 42v484zM240 232v604h-60q-24 0 -42 -18t-18 -42v-484q0 -24 21 -42t39 -18h60zM2048 292q0 -72 -52 -126t-128 -54h-180v120h-120v604h120v120h116q-8 172 -72 326t-172 272q-106 116 -244 181t-292 65t-292 -65
t-244 -181t-172 -272q-64 -154 -72 -326h116v-120h120v-604h-120v-120h-180q-117 0 -166 112q-14 33 -14 68v484q0 57 35 105t89 63q8 202 81 380t197 312t285 210q160 74 337 74t337 -74q161 -74 285 -210q124 -134 197 -312t81 -380q83 -24 114 -112q10 -27 10 -56v-484z
" />
    <glyph glyph-name="uniE69E" unicode="&#xe69e;" 
d="M1634 172q22 0 34 16t18 25q6 8 2 19q6 16 -12 38t-38 22q-18 0 -29 -2t-22 -12t-13 -22t-6 -24q5 -12 7 -23q1 -11 19 -24t40 -13zM1624 416q70 0 124 -50t64 -134q-10 -82 -62 -131t-126 -49t-128 62t-48 118q-6 64 50 124t126 60zM1928 476h-1804l-4 -484h1812z
M272 772l-148 -176h1796l-156 176h-1492zM1624 1196q-24 0 -42 -20t-10 -40q-6 -16 12 -38t39 -22q49 0 69 60q-2 4 -4 12t-5 16t-19 20t-40 12zM1626 1316q78 0 133 -55t49 -125q8 -66 -47 -123t-113 -57t-90 14q-100 46 -114 166q12 118 114 166q31 14 68 14zM1928 1440
h-1804l-4 -548h1812zM1872 1560l-228 240h-1236l-232 -240h1696zM352 1920h1348l348 -380l4 -768h-132l132 -144l-4 -756h-2044l-4 760l116 140h-116l4 776z" />
    <glyph glyph-name="uniE69F" unicode="&#xe69f;" 
d="M1692 656q-19 60 -67 60q-23 0 -41 -22t-12 -38q-6 -16 6 -34t24 -22t31 -4q18 0 32 11q13 11 17 20t6 17t4 12zM1631 836q74 0 129 -58t48 -122q7 -66 -49 -125t-114 -59t-87 16q-104 56 -114 168q8 76 60 128t127 52zM1928 956h-1804l-4 -604h1812zM1876 1076l-240 364
h-1220l-244 -364h1704zM0 1032l348 528h1356l348 -536l-4 -792h-2044z" />
    <glyph glyph-name="uniE6A0" unicode="&#xe6a0;" 
d="M240 716v-724h1568v724h-416l96 -540l-332 140l-260 -244l-116 644h-540zM1928 836v240h-604l44 -240h560zM1332 372l-128 704h-364l136 -764l156 144zM120 1076v-240h640l-40 240h-600zM0 716v480h2048v-480h-120v-844h-1808v844h-120zM1620 1655q0 36 -12 53l-16 24
q-6 10 -22 24q-52 44 -112 44t-90 -10t-64 -34q-130 -118 -212 -392q62 15 116 27t124 37q155 55 240 124q13 13 20 24l16 24q12 19 12 55zM420 1654q0 -50 52 -102q151 -126 476 -184q-81 267 -212 388q-58 38 -85 41t-59 3t-56 -8t-64 -36q-52 -52 -52 -102zM300 1661
q0 109 92 183q83 76 212 76t212 -76q116 -88 204 -312q80 200 183 294t234 94t211 -72q92 -77 92 -196q0 -163 -197 -265t-443 -143v-24l-76 12h-4l-80 -12l4 24q-223 37 -418 132q-75 37 -134 84q-92 92 -92 201z" />
    <glyph glyph-name="uniE6A1" unicode="&#xe6a1;" 
d="M1506 1076q-22 0 -42 -20t-20 -41q0 -23 20 -43t41 -20q23 0 43 20t20 42t-20 42t-42 20zM1506 832q-74 0 -128 54t-54 128t54 128t128 54t128 -54t54 -128t-54 -128t-128 -54zM480 1196h124v-120h120v-124h-120v-120h-124v120h-120v124h120v120zM1084 1316h-120v4
q-286 -8 -529 -73t-315 -123v-832q0 -41 38 -56q9 -4 22 -4h144l248 492l44 -12q4 0 103 -20t303 -20q203 0 382 34l80 14l236 -488h148q24 0 42 16t18 44v832q-71 58 -315 123q-243 65 -529 73v-4zM1026 552q-163 0 -390 32l-240 -472h-216q-76 0 -128 52t-52 128v848
q0 107 323 200t641 100v360h120v-360q318 -7 641 -100t323 -200v-848q0 -76 -52 -128t-128 -52h-224l-228 472q-227 -32 -390 -32z" />
    <glyph glyph-name="uniE6A2" unicode="&#xe6a2;" 
d="M964 -8h120v856l668 952h-1456l668 -952v-856zM1204 -128h-360v936l-780 1112h1920l-780 -1112v-936z" />
    <glyph glyph-name="uniE6A3" unicode="&#xe6a3;" 
d="M844 1076h276l-276 260h-4zM120 -8h1080l4 964h-484l4 475l-604 -1294l-4 1303h608v-9l60 129l536 -504l4 -1184h-1328l124 265v-145zM840 1676h-116l-4 244l316 -120h-192zM1749 1529l-183 70l2 -159h276zM1749 1529l299 -113l-4 -1184h-600l-4 120h488l-4 964h-480
l-3 330l125 -47l-2 101h4zM1441 1646l-405 154h404z" />
    <glyph glyph-name="uniE6A4" unicode="&#xe6a4;" 
d="M1204 1316h396l-396 396v-396zM1084 1800h-724v-1808h1328v1204h-604v604zM1808 -128h-1568v2048h924l644 -640v-1408z" />
    <glyph glyph-name="uniE6A5" unicode="&#xe6a5;" 
d="M1204 -8l4 116l840 4l4 -124zM504 112l428 -4l252 444l-720 416l-336 -572q0 -14 -4 -24t2 -30q8 -20 30 -30zM890 1676q-10 0 -14 -6t-12 -10q-8 -5 -8 -16l-336 -568l732 -424l328 576l4 -4q4 20 8 26t-12 42q-6 10 -20 16l-624 360q-4 4 -6 4l-16 6q0 -5 -10 2
q-4 -4 -14 -4zM1620 1412q131 -72 72 -248l-692 -1172l-524 -4l-384 224q-27 12 -51 44t-33 62q-23 85 20 134l720 1256q33 46 79 68q91 45 169 -4z" />
    <glyph glyph-name="uniE6A6" unicode="&#xe6a6;" 
d="M1616 -8l-104 120h-976l-104 -120h1184zM964 232v1084h-476l-128 272v-1492l120 136h484zM1084 1316v-1084h484l120 -136v1496l-128 -276h-476zM1652 1800h-1256l168 -360h920zM1808 -128h-1568v2048h1568v-2048z" />
    <glyph glyph-name="uniE6A7" unicode="&#xe6a7;" 
d="M0 -128v120h2048v-120h-2048zM964 1920h120v-1420l440 440l84 -88l-584 -584l-584 584l84 88l440 -440v1420z" />
    <glyph glyph-name="uniE6A8" unicode="&#xe6a8;" 
d="M1604 1560h-1364l-4 -604h1368l248 312zM1084 1680h580l340 -412h-4l-332 -432h-588l4 -964h-124l4 964h-848l4 844h840l4 240h116z" />
    <glyph glyph-name="uniE6A9" unicode="&#xe6a9;" 
d="M1688 476v360h-1232l-140 -176l144 -184h1228zM360 1680v-364h1228l144 188l-140 176h-1232zM1084 1196v-240h724v-604h-724v-480h-120v480h-564l-236 312l236 292h564v240h-724v604h724v120h120v-120h564l236 -296l-236 -308h-564z" />
    <glyph glyph-name="uniE6AA" unicode="&#xe6aa;" 
d="M1024 416q52 0 86 34t34 84t-36 86t-84 36t-84 -35t-36 -86t34 -85t86 -34zM1046 776q25 0 70 -20q148 -67 148 -222t-148 -222q-45 -20 -92 -20q-96 0 -168 70t-72 180q0 108 92 182l-248 436l104 60l256 -448h8l20 4h30zM2048 476h-744v120h620q-11 218 -134 418
q-36 60 -86 114l-96 -96l-88 84l100 96q-243 210 -536 224v-360h-120v360q-308 -17 -532 -224l92 -96l-84 -84l-96 96q-140 -152 -198 -384q-17 -70 -22 -148h620v-120h-744v60q0 210 79 396t222 327t329 221t394 80t394 -80t329 -221t222 -327t79 -396v-60z" />
    <glyph glyph-name="uniE6AB" unicode="&#xe6ab;" 
d="M480 1444v-1092l1088 4v1084zM1688 232l-1328 4v1324l1328 4v-1332z" />
    <glyph glyph-name="uniE6AC" unicode="&#xe6ac;" 
d="M0 352v124h376q190 0 328 156l112 140l96 -76l-116 -140q-170 -204 -420 -204h-376zM1612 352q-254 0 -424 204l4 4l-504 616q-52 66 -134 103t-178 37h-376v124h376q163 0 314 -104q43 -29 82 -76l4 4l512 -636q135 -152 324 -152h232l-200 196l84 88l344 -344
l-344 -344l-84 84l200 196h-232zM1612 1316q-176 0 -312 -136l-128 -164l-96 76l132 160v4q113 125 292 170q58 14 112 14h232l-200 196l84 84l344 -344l-344 -340l-84 84l200 196h-232z" />
    <glyph glyph-name="uniE6AD" unicode="&#xe6ad;" 
d="M480 392l1012 508l-1012 500v-1008zM1760 900l-1400 -704v1400z" />
    <glyph glyph-name="uniE6AE" unicode="&#xe6ae;" 
d="M1320 1560l4 -1328h240l4 1328h-248zM720 232l4 1328h-248l4 -1328h240zM1688 112h-488l4 1568h480zM844 1680l-4 -1568h-480l-4 1568h488z" />
    <glyph glyph-name="uniE6AF" unicode="&#xe6af;" 
d="M480 424l572 476l-572 472v-948zM984 1452l80 92l776 -644l-776 -652l-80 92l668 560zM1240 900l-880 -736v1464z" />
    <glyph glyph-name="uniE6B0" unicode="&#xe6b0;" 
d="M1568 1372l-576 -472l572 -473zM984 1544l76 -92l-664 -552l664 -560l-76 -92l-780 652zM1688 1628l-4 -1464l-876 736h-4z" />
    <glyph glyph-name="uniE6B1" unicode="&#xe6b1;" 
d="M370 1016q-35 0 -85 -22t-85 -58q-80 -80 -80 -190t78 -190t194 -80h1144q164 0 278 116t114 274t-114 274t-278 116q-84 0 -122 -17t-66 -31l-44 -24l-32 36q-138 156 -314 156q-178 0 -296 -87t-158 -233l-16 -52l-52 8l-22 4h-44zM932 1500q232 0 400 -168
q90 44 215 44t244 -66t188 -185q69 -118 69 -241q0 -234 -153 -383t-359 -149h-1144q-160 0 -276 114t-116 278q0 108 56 201t148 145q94 52 200 46q61 162 206 263t322 101z" />
    <glyph glyph-name="uniE6B2" unicode="&#xe6b2;" 
d="M1024 1284l344 -340l-84 -92v4l-200 196v-936l-120 -4v944l-200 -204l-84 92zM2048 1108q0 -214 -151 -361q-72 -71 -166 -111t-195 -36l-332 -4v124l332 -4q254 14 360 240q32 70 32 150t-32 154t-85 128q-55 52 -127 84t-148 28q-24 4 -44 -1t-48 -11t-52 -18
q-23 -12 -44 -18l-44 -28l-32 40q-37 41 -58 57q-22 15 -34 25t-29 18l-26 12l-27 12l-24 8l-24 8t-44 12q-26 8 -74 4q-88 4 -176 -34t-156 -114t-96 -172l-16 -56l-52 12q-8 -4 -12 0t-10 2t-12 0t-10 -2q-108 8 -190 -74t-82 -191q0 -110 74 -188t198 -87l444 4v-124
l-444 4q-102 -4 -192 46t-145 142t-55 199q0 167 114 280t290 113q99 248 358 336q82 28 170 24q72 6 167 -25t141 -63t92 -72q27 5 52 17q26 12 50 13q24 2 50 8t52 2q101 4 195 -36q93 -40 165 -110t112 -166t40 -196v-4z" />
    <glyph glyph-name="uniE6B3" unicode="&#xe6b3;" 
d="M1204 720v-124l44 1l-34 123l322 -4q254 14 360 240q32 70 32 150t-32 154t-85 128q-55 52 -127 84t-148 28q-24 4 -44 -1t-48 -11t-52 -18q-23 -12 -44 -18l-44 -28l-32 40q-37 41 -58 57q-22 15 -34 25t-29 18l-26 12l-27 12l-24 8l-24 8t-44 12q-26 8 -74 4
q-88 4 -176 -34t-156 -114t-96 -172l-16 -56l-52 12q-8 -4 -12 0t-10 2t-12 0t-10 -2q-108 8 -190 -74t-82 -191q0 -110 74 -188t198 -87l444 4v-124l-444 4q-156 -8 -274 108t-118 280t112 278t292 114q99 248 358 336q82 28 170 24q72 6 167 -25t141 -63t92 -72
q27 5 52 17q26 12 50 13q24 2 50 8t52 2q101 4 195 -36q93 -40 165 -110t112 -166t40 -196v-4q0 -214 -151 -361q-72 -71 -166 -111t-195 -36l-288 -3l36 -133l84 -80l-344 -348l-344 348l84 80l200 -196v928l120 4l130 -480h-10z" />
    <glyph glyph-name="uniE6B4" unicode="&#xe6b4;" 
d="M1652 1560v120h276v-1808h-1808v1808h272v-120h-152v-1568h1568v1568h-156zM604 1440h840v240h-360v60q0 20 -14 40t-44 20t-46 -18t-16 -42v-60h-360v-240zM1568 1800v-484h-1088v484h372q28 56 65 88t103 32q65 0 104 -28t72 -92h372z" />
    <glyph glyph-name="uniE6B5" unicode="&#xe6b5;" 
d="M1566 -8q50 0 86 36t36 83t-33 84t-89 37t-89 -38t-33 -84t36 -82t86 -36zM482 -8q50 0 86 36t36 83t-33 84t-89 37t-89 -38t-33 -84t36 -82t86 -36zM1549 352q156 0 223 -116h156v360h-1808v-360h156q26 48 82 82t107 34q156 0 223 -116h672q26 48 82 82t107 34z
M1208 1076v-360h468l-184 360h-284zM1088 716v360h-420l-268 -360h688zM240 116h-240v600h248l360 480h956l248 -480h236v-600h-240v-4q0 -96 -70 -168t-170 -72q-157 0 -224 148q-20 45 -20 92v4h-600v-4q0 -96 -70 -168t-174 -72q-153 0 -220 148q-20 45 -20 92v4z" />
    <glyph glyph-name="uniE6B6" unicode="&#xe6b6;" 
d="M120 1068v-1076h1808v1076h-1808zM360 1560h-240v-372h1808v372h-240v-244h-364v244h-600v-244h-364v244zM1568 1440v240h-124v-240h124zM604 1440v240h-124v-240h124zM1324 1800h364v-120h360v-1808h-2048v1808h360v120h364v-120h600v120z" />
    <glyph glyph-name="uniE6B7" unicode="&#xe6b7;" 
d="M1680 260q124 0 248 -20v1432q-26 0 -98 10t-190 10q-322 0 -556 -116v-1420q188 81 396 98q76 6 200 6zM396 268q301 0 568 -116v1420q-247 124 -568 124q-156 0 -276 -24v-1428q144 24 276 24zM1691 140q-339 0 -515 -76v-100h-304v100q-218 84 -476 84
q-176 0 -296 -30l-100 -26v1676l44 12q4 0 30 6q145 34 322 34q346 0 628 -140q231 132 616 132q76 0 140 -6l112 -10q52 -4 78 -10t30 -6l48 -8v-1672l-72 12l-26 4q-156 24 -259 24z" />
    <glyph glyph-name="uniE6B8" unicode="&#xe6b8;" 
d="M1204 112q0 -76 -52 -128t-128 -52t-128 52t-52 128h120q0 -36 36 -54q12 -6 30 -6t36 18t18 42h120zM1568 1000q0 112 -44 216t-116 180q-74 76 -174 120t-210 44t-210 -44t-174 -120t-116 -180q-44 -104 -44 -216v-396q0 -190 -112 -368h1312q-112 178 -112 368v396z
M360 1000q0 138 51 262t143 218t214 147t256 53h-60v120h120v-120h-60q134 0 256 -53t214 -147t143 -218t51 -262v-396q0 -147 78 -278q30 -50 54 -78l24 -28l108 -104h-1852l104 100q0 4 25 34t53 78q78 135 78 276v396z" />
    <glyph glyph-name="uniE6B9" unicode="&#xe6b9;" 
d="M1560 836q16 -148 42 -214q70 -184 142 -270q78 113 107 180t53 170zM1444 836h-364l4 -840q239 12 456 158q69 47 120 106q-83 112 -122 200q-38 88 -66 193t-28 183zM384 260q268 -250 580 -264l-4 840h-352q-11 -110 -37 -204q-64 -232 -187 -372zM120 836
q35 -302 188 -484q94 136 133 256q13 40 27 96zM1924 956q-6 104 -39 208t-71 168q-39 63 -70 108q-22 -26 -47 -65t-85 -177q-33 -77 -52 -242h364zM484 956q0 108 -47 237t-129 247q-152 -181 -188 -484h364zM1444 956q0 123 57 280t159 296q-94 109 -252 182t-324 82
l-4 -840h364zM960 956l4 840q-311 -13 -580 -264q86 -99 146 -251t78 -325h352zM1022 1920q208 0 398 -80t330 -222q138 -144 218 -330t76 -392q4 -206 -76 -392t-218 -330q-140 -144 -330 -222q-190 -80 -398 -80t-393 78q-187 78 -329 222q-142 142 -221 328t-83 396
q4 210 83 396t221 328t327 220q187 80 395 80z" />
    <glyph glyph-name="uniE6BA" unicode="&#xe6ba;" 
d="M0 -128v120h2048v-120h-2048zM480 112v604h-240v-604h-120v724h484v-724h-124zM1084 112v964h-240v-964h-120v1084h480v-1084h-120zM1688 112v1448h-244v-1448h-120v1568h484v-1568h-120z" />
    <glyph glyph-name="uniE6BB" unicode="&#xe6bb;" 
d="M0 -128v120h2048v-120h-2048zM1688 112v604h-244v-604h-120v724h484v-724h-120zM1084 112v964h-240v-964h-120v1084h480v-1084h-120zM480 112v1448h-240v-1448h-120v1568h484v-1568h-124z" />
    <glyph glyph-name="uniE6BC" unicode="&#xe6bc;" 
d="M1756 112v-120h-852q-134 0 -256 52t-214 142q-90 92 -142 214t-52 256t51 254t143 212t214 142q122 52 256 52h352l-320 320l84 84l464 -464l-464 -464l-84 88l320 316h-352q-146 0 -272 -74t-199 -198t-73 -251q0 -245 162 -403t382 -158h852z" />
    <glyph glyph-name="uniE6BD" unicode="&#xe6bd;" 
d="M1808 1018q0 -136 -51 -256t-143 -212t-214 -145t-256 -53h-352l320 -316l-84 -88l-464 468l464 464l84 -88l-320 -316h352q146 0 272 74t199 198t73 268t-74 270t-200 200t-270 74h-852v120h852q134 0 256 -52t213 -141t143 -211t52 -258z" />
    <glyph glyph-name="uniE6BE" unicode="&#xe6be;" 
d="M1688 776h120v-664h-664v120h460l-1244 1244v-460h-120v664h664v-120h-456l1240 -1240v456z" />
    <glyph glyph-name="uniE6BF" unicode="&#xe6bf;" 
d="M724 956q-40 0 -80 -30t-40 -86t36 -90t84 -34h604q77 0 110 74q10 22 10 58t-36 72t-84 36h-604zM724 596q-153 0 -224 146q-20 43 -20 92q0 98 70 170t174 72h604q100 0 170 -70t70 -170t-70 -170t-170 -70h-604zM240 1196v-1204h1568v1204h-1568zM120 1560v-244h1808
v244h-1808zM0 1196v484h2048v-484h-120v-1324h-1808v1324h-120z" />
    <glyph glyph-name="uniE6C0" unicode="&#xe6c0;" 
d="M1023 1440q77 0 127 48t58 132q-13 122 -112 166q-33 14 -68 14q-80 0 -133 -58t-47 -122q-7 -68 46 -124t129 -56zM1023 1920q124 0 210 -84t95 -216q-14 -176 -146 -258q-43 -26 -98 -38l4 -128h176l4 -120h-184l4 -912q266 38 410 270q46 72 58 162l-220 -112l-60 108
l380 188l188 -376l-104 -56l-84 156q-58 -200 -236 -334t-392 -134t-386 126t-250 342l-76 -156l-112 56l192 376l376 -188l-52 -108l-228 112q62 -268 308 -384q76 -36 168 -48l-4 912h-176l-4 120h184l-4 128q-111 26 -177 112t-59 184q-8 116 82 208t213 92z" />
    <glyph glyph-name="uniE6C1" unicode="&#xe6c1;" 
d="M2048 232v-120h-1204v120h1204zM2048 716v-120h-2048v120h2048zM2048 1196v-120h-1688v120h1688zM0 1560v120h2048v-120h-2048z" />
    <glyph glyph-name="uniE6C2" unicode="&#xe6c2;" 
d="M1204 232v-120h-1204v120h1204zM2048 716v-120h-2048v120h2048zM0 1076v120h1688v-120h-1688zM0 1560v120h2048v-120h-2048z" />
    <glyph glyph-name="uniE6C3" unicode="&#xe6c3;" 
d="M2048 232v-120h-2048v120h2048zM2048 716v-120h-2048v120h2048zM2048 1196v-120h-2048v120h2048zM0 1560v120h2048v-120h-2048z" />
    <glyph glyph-name="uniE6C4" unicode="&#xe6c4;" 
d="M1628 232v-120h-1208v120h1208zM2048 716v-120h-2048v120h2048zM1868 1076h-1688v120h1688v-120zM0 1560v120h2048v-120h-2048z" />
    <glyph glyph-name="uniE6C5" unicode="&#xe6c5;" 
d="M1024 228q-48 0 -86 40q-36 40 -30 84q-6 38 30 79t75 41q115 0 135 -120q-8 -60 -42 -92t-82 -32zM964 1076h124l-4 -472h-116zM232 112h1588l-798 1381zM2024 -8h-1996l992 1748h4z" />
    <glyph glyph-name="uniE6C6" unicode="&#xe6c6;" 
d="M964 1076h120v-360h484v-120h-604v480zM1022 -8q148 0 280 57t232 157q214 214 214 510q0 146 -57 278t-157 232t-232 157t-278 57t-278 -57t-232 -157t-158 -233q-56 -133 -56 -279t56 -276t156 -230q99 -100 231 -158t279 -58zM1748 1322q0 92 -62 155t-146 63
t-152 -68q183 -78 320 -264q40 59 40 114zM500 1540q-76 0 -138 -62t-62 -136t40 -134q124 171 320 268q-70 52 -99 58t-61 6zM180 704q0 236 96 396q-96 96 -96 233t97 232t246 95t253 -140q62 24 118 28t70 8v124h-120v120h360v-120h-120v-124q24 -4 76 -8t112 -28
q104 140 253 140t246 -95t97 -232t-96 -233q96 -160 96 -381t-116 -427q-33 -60 -80 -116l152 -208l-96 -72l-144 192q-232 -216 -560 -216t-560 216l-144 -192l-96 72l152 208q-138 163 -182 390q-14 76 -14 138z" />
    <glyph glyph-name="uniE6C7" unicode="&#xe6c7;" 
d="M1688 596v-364h120v364h-120zM1688 1076v-360h120v360h-120zM1204 1076h-480v120h480v-120zM1324 1316h-600v124h600v-124zM1808 1560h-120v-364h120v364zM604 1800v-1808h964v1808h-964zM480 1800h-240v-1808h240v1808zM120 1920h1568v-240h240v-1568h-240v-240h-1568
v2048z" />
    <glyph glyph-name="uniE6C8" unicode="&#xe6c8;" 
d="M236 496l136 -264h96l132 264l-4 704h-116l-4 -728h-116l-4 728h-116zM300 1560q-20 0 -36 -12t-19 -20t-5 -16t-4 -12l4 -180h356l4 180q-4 12 -6 25t-18 24t-40 11h-236zM1440 1316h400l-396 392zM536 1680q76 0 125 -47t59 -133l-4 -1032l-292 -600l-308 596l4 1036
q-8 68 48 124t128 56h68l-4 240h1044l640 -640l4 -1408h-1508l4 120h1380l4 1204h-608l4 604h-844l4 -120h52z" />
    <glyph glyph-name="uniE6C9" unicode="&#xe6c9;" 
d="M1928 1196h-1808v-1084h1808v1084zM724 1560h120v-120h-120v120zM480 1560h124v-120h-124v120zM240 1560h120v-120h-120v120zM120 1316h1808v364h-1808v-364zM2048 -8h-2048v1808h2048v-1808z" />
    <glyph glyph-name="uniE6CA" unicode="&#xe6ca;" 
d="M2048 -8v-120h-120v120h120zM1808 -8v-120h-120v120h120zM1568 -8v-120h-124v120h124zM1324 -8v-120h-120v120h120zM1084 -8v-120h-120v120h120zM844 -8v-120h-120v120h120zM604 -8v-120h-124v120h124zM360 -8v-120h-120v120h120zM120 -8v-120h-120v120h120zM2048 232
v-120h-120v120h120zM1084 232v-120h-120v120h120zM120 232v-120h-120v120h120zM2048 476v-124h-120v124h120zM1084 476v-124h-120v124h120zM120 476v-124h-120v124h120zM2048 716v-120h-120v120h120zM1084 716v-120h-120v120h120zM120 716v-120h-120v120h120zM2048 956v-120
h-120v120h120zM1808 956v-120h-120v120h120zM1568 956v-120h-124v120h124zM1324 956v-120h-120v120h120zM1084 956v-120h-120v120h120zM844 956v-120h-120v120h120zM604 956v-120h-124v120h124zM360 956v-120h-120v120h120zM120 956v-120h-120v120h120zM2048 1196v-120h-120
v120h120zM1084 1196v-120h-120v120h120zM120 1196v-120h-120v120h120zM2048 1440v-124h-120v124h120zM1084 1440v-124h-120v124h120zM120 1440v-124h-120v124h120zM2048 1680v-120h-120v120h120zM1084 1680v-120h-120v120h120zM120 1680v-120h-120v120h120zM2048 1800h-120
v120h120v-120zM1808 1920v-120h-120v120h120zM1568 1920v-120h-124v120h124zM1324 1920v-120h-120v120h120zM1084 1920v-120h-120v120h120zM844 1920v-120h-120v120h120zM604 1920v-120h-124v120h124zM360 1800h-120v120h120v-120zM120 1920v-120h-120v120h120z" />
    <glyph glyph-name="uniE6CB" unicode="&#xe6cb;" 
d="M2048 -8v-120h-120v120h120zM1808 -8v-120h-120v120h120zM1568 -8v-120h-124v120h124zM1324 -8v-120h-120v120h120zM1084 -8v-120h-120v120h120zM844 -8v-120h-120v120h120zM604 -8v-120h-124v120h124zM360 -8v-120h-120v120h120zM120 -8v-120h-120v120h120zM2048 232
v-120h-120v120h120zM120 232v-120h-120v120h120zM2048 476v-124h-120v124h120zM120 476v-124h-120v124h120zM2048 716v-120h-120v120h120zM120 716v-120h-120v120h120zM2048 956v-120h-120v120h120zM120 956v-120h-120v120h120zM2048 1196v-120h-120v120h120zM120 1196v-120
h-120v120h120zM1348 832l156 48v32l-156 48l-8 32q-4 8 -6 16t-6 13t-16 31l-12 28l76 144l-24 24l-144 -76l-28 12q-26 12 -31 16t-13 6t-16 6l-32 8l-48 156h-32l-48 -156l-32 -8q-8 -4 -16 -6t-13 -6t-31 -16l-28 -12l-144 76l-24 -24l76 -144l-12 -28q-12 -26 -16 -31
t-6 -13t-6 -16l-8 -32l-156 -48v-32l156 -48l8 -32q4 -8 6 -16t6 -13t16 -31l12 -28l-76 -144l24 -24l144 76l28 -12q26 -12 31 -16t13 -6t16 -6l32 -8l48 -156l16 -4l16 4l48 156l32 8q8 4 16 6t14 6t14 6t16 6l28 16l144 -76l24 24l-76 144l12 28q6 12 12 22t9 20
q3 11 7 18zM2048 1440v-124h-120v124h120zM120 1440v-124h-120v124h120zM1444 1056l172 -52l8 -40v-32l4 -36l-4 -36v-32l-8 -40l-172 -52l-8 -24l84 -160l-24 -28q-13 -17 -48 -52t-52 -48l-28 -24l-160 84l-24 -8l-52 -172l-40 -8h-32l-36 -4l-36 4h-32l-40 8l-52 172
l-24 8l-160 -84l-32 24l-60 60q-25 25 -36 40l-24 28l84 160l-8 24l-172 52l-8 40v32l-4 36l4 36v32l8 40l172 52l8 24l-84 160l24 28q25 33 42 48t30 28l24 24l32 24l160 -84l24 8l52 172l40 8l68 4l68 -4l40 -8l52 -172l24 -8l160 84l32 -24l96 -96l24 -32l-84 -160z
M2048 1680v-120h-120v120h120zM120 1680v-120h-120v120h120zM2048 1800h-120v120h120v-120zM1808 1920v-120h-120v120h120zM1444 1800v120h124v-120h-124zM1204 1800v120h120v-120h-120zM964 1800v120h120v-120h-120zM724 1800v120h120v-120h-120zM480 1800v120h124v-120
h-124zM360 1800h-120v120h120v-120zM120 1920v-120h-120v120h120z" />
    <glyph glyph-name="uniE6CC" unicode="&#xe6cc;" 
d="M2048 -8v-120h-120v120h120zM1808 -8v-120h-120v120h120zM1568 -8v-120h-124v120h124zM1324 -8v-120h-120v120h120zM1084 -8v-120h-120v120h120zM844 -8v-120h-120v120h120zM604 -8v-120h-124v120h124zM360 -8v-120h-120v120h120zM120 -8v-120h-120v120h120zM2048 232
v-120h-120v120h120zM120 232v-120h-120v120h120zM2048 476v-124h-120v124h120zM120 476v-124h-120v124h120zM2048 716v-120h-120v120h120zM120 716v-120h-120v120h120zM2048 956v-120h-120v120h120zM120 956v-120h-120v120h120zM2048 1196v-120h-120v120h120zM120 1196v-120
h-120v120h120zM440 1124l84 84l500 -496l500 496l84 -84l-584 -584zM2048 1440v-124h-120v124h120zM120 1440v-124h-120v124h120zM2048 1680v-120h-120v120h120zM120 1680v-120h-120v120h120zM2048 1800h-120v120h120v-120zM1808 1920v-120h-120v120h120zM1444 1800v120h124
v-120h-124zM1204 1800v120h120v-120h-120zM964 1800v120h120v-120h-120zM724 1800v120h120v-120h-120zM480 1800v120h124v-120h-124zM360 1800h-120v120h120v-120zM120 1920v-120h-120v120h120z" />
    <glyph glyph-name="uniE6CD" unicode="&#xe6cd;" 
d="M1812 472v-160h116v160h-116zM1928 592v244h-580q-39 0 -62 -38q-6 -10 -6 -26v-120q0 -35 40 -54q12 -6 28 -6h580zM126 1328q-2 0 -6 4v-1156q0 -24 18 -44t50 -20h1504v360h-344q-80 0 -134 54t-54 126v120q0 76 54 130t134 54h344v364h-1522l-42 8h-2zM1812 1440
v-484h116v604h-1740q-22 0 -43 -18t-21 -39q0 -63 64 -63h1624zM2048 1680v-1488h-236v-200h-1624q-80 0 -134 54t-54 130v1316q0 76 56 132t132 56h1860z" />
    <glyph glyph-name="uniE6CE" unicode="&#xe6ce;" 
d="M120 956v-844h1808v844h-1808zM1928 1076v240h-52l-284 -240h336zM1688 1316h-352l-284 -240h352zM516 1076h352l284 240h-352zM120 1316v-240h208l284 240h-492zM1928 1440v240h-316l284 -240h32zM1424 1680h-352l284 -240h352zM888 1680h-352l284 -240h352zM120 1680
v-240h512l-284 240h-228zM2048 -8h-2048v1808h2048v-1808z" />
    <glyph glyph-name="uniE6CF" unicode="&#xe6cf;" 
d="M1444 1376q0 24 -11 40t-20 18t-17 6q-8 3 -12 4l-1200 -4q-15 4 -26 -4l-24 -18q-14 -11 -14 -38v-244q0 -23 14 -34l24 -18q11 -8 26 -4l180 -4v-780q0 -20 12 -36t20 -19t16 -5t12 -4l960 4q16 -6 38 12t22 44v508l484 -340v752l-484 -332v496zM1564 296
q0 -70 -48 -122t-132 -62l-960 4q-68 -8 -124 48t-56 128v668l-60 -4q-84 8 -134 58t-50 126v236q0 76 50 128t134 60l176 -4v64q0 109 112 164q32 16 72 12l664 4v-124l-664 4q-30 -8 -47 -26t-17 -38v-56l904 -4q68 8 124 -48t56 -132l484 64v-1212l-484 332v-268z" />
    <glyph glyph-name="uniE6D0" unicode="&#xe6d0;" 
d="M964 -8v116l-120 4v-124zM240 414q0 26 -22 44t-38 14q-11 4 -25 -6q-15 -10 -25 -16t-10 -34q0 -50 60 -68q4 1 12 4t17 6t20 17q11 13 11 39zM1808 1076v-124l120 4v116zM900 1020q0 26 -20 42t-40 10q-18 6 -39 -10t-21 -30v-18q0 -18 4 -25t6 -10t8 -11t18 -10t24 -6
q12 4 24 6t24 20t12 42zM1568 1730q0 22 -6 30t-14 21q-8 12 -17 13t-27 6q-12 -5 -22 -6t-18 -13q-8 -13 -14 -21t-6 -30t23 -38q23 -17 37 -12q20 -4 42 12t22 38zM1020 1038v-26q0 -33 -14 -69t-38 -57q-62 -57 -128 -50q-4 -4 -10 -2t-12 0t-10 2t-8 0
q-76 -121 -76 -300q0 -78 19 -146t61 -162l280 4v-364l-360 4v252q-74 118 -108 282q-12 58 -12 108q0 174 48 286l-312 -304q20 -42 20 -56v-28q0 -114 -108 -168q-32 -16 -72 -12q-68 -8 -124 48t-56 128q0 74 48 126t132 62q11 -4 20 -4l38 -8q10 0 18 -8l408 412
q-4 7 -4 12v12q0 76 47 125t133 59l32 -4l468 472q-5 5 -6 16q-2 11 -6 27t-4 43q0 64 50 113t130 57q84 -8 134 -58t50 -126q0 -109 -112 -164q-32 -16 -72 -12q-21 -7 -80 16l-308 -308q32 8 64 20t101 20t103 4q67 6 165 -16t154 -49t97 -51v-4l248 4v-364l-360 4v284
q-196 108 -442 54q-126 -28 -238 -98q12 -24 12 -38z" />
    <glyph glyph-name="uniE6D1" unicode="&#xe6d1;" 
d="M1360 772q0 24 18 70t38 78q4 12 20 46t24 58h8q28 0 46 -18t18 -30t-8 -24q-8 -14 -20 -32t-15 -26t-22 -41t-19 -59t21 -34t39 8q-14 -72 -80 -72q-30 0 -49 26t-19 50zM1092 708q-48 0 -48 46q0 22 10 42l12 24q4 8 9 21t12 24t9 19t12 28h-8q-62 0 -140 -208h-4
q-35 0 -52 32q-4 7 -4 16q0 8 10 32t16 40t12 30q6 12 16 35t18 47t20 48q12 26 12 52q4 4 14 4h28q30 0 30 -36l-8 -52v-8q68 84 120 84q36 0 36 -60v-16q33 50 90 74q14 6 22 6q32 0 32 -34t-21 -72t-28 -54t-13 -27t-8 -15q0 -4 -2 -10q-2 -4 -5 -14t-3 -14q0 -12 14 -12
h16q22 0 34 12q-8 -34 -36 -65t-64 -31q-52 0 -52 50q0 70 60 170h-12q-26 0 -79 -78t-61 -130h-16zM1524 1064q-48 0 -48 28v14q0 16 6 25l14 21q20 -4 56 -4t36 -24v-10q0 -18 -28 -46l-20 -4h-16zM86 704q-50 0 -50 34t36 124t55 135q18 46 33 79v8h-8l-12 -4h-66
q-64 0 -74 52v16q0 9 4 16t6 13t6 11q13 -28 60 -28l124 16q85 20 124 20q40 0 62 -16t22 -35v-23q0 -18 -12 -30l-60 8h-38l-18 -4h-4q-20 -40 -40 -88t-50 -121t-48 -119q-16 -46 -26 -68q-11 4 -26 4zM728 704q-78 0 -88 76q-8 -24 -44 -54t-64 -30q-56 0 -56 60t54 178
l10 22q-57 0 -138 -170q-22 -45 -34 -94q-43 0 -66 44q-6 12 -6 26q0 52 104 262q20 38 36 73t32 119q4 0 13 6t25 6h6q28 0 36 -10t8 -30t-27 -78t-41 -94q-14 -37 -16 -40q91 52 124 52q52 0 52 -44q0 -13 -10 -32l-16 -32q-4 -8 -14 -24t-14 -24l-12 -24q-4 -8 -10 -25
t-8 -19l-4 -18q0 -9 10 -8l29 5q19 3 45 29q18 82 84 157t120 75t78 -44q6 -12 6 -28q8 -42 -14 -80t-59 -61q-36 -23 -69 -27t-46 16q-4 8 10 8t34 8q50 20 64 88q5 10 -1 17t-11 7h-12q-26 0 -63 -48t-37 -92t38 -44h18q15 4 34 12l39 17q20 9 59 35q-88 -124 -188 -124z
M1872 1007q0 -9 -7 -30t-11 -29t-10 -22t-12 -25t-6 -17q-2 -6 -4 -17t-2 -15q22 -35 103 86q38 57 49 110v4h4q40 0 56 -16t16 -22v-10q0 -10 -6 -18t-10 -22l-8 -20q0 -18 -16 -47q-16 -28 -16 -41q-47 -131 -79 -179t-61 -65t-68 -20l-4 -4q-63 0 -76 28q-44 44 -32 80
q30 -46 88 -36q34 0 62 30t58 106l-4 4q-14 -22 -44 -42q-72 -49 -98 -6q-10 20 -10 44t12 60l18 56q7 22 8 28q2 6 8 20q6 12 6 24v4q-4 4 -4 6t-7 2h-17q-8 0 -16 -8q-8 0 -20 -12t-12 -16l-24 -56q-54 -124 -96 -222t-48 -138q0 1 -20 9t-36 23t-16 35t27 82t37 88
q10 27 36 75t44 108q0 4 -12 16q-13 12 -8 20v6q0 15 20 26h4l36 12v4q58 136 120 180q39 24 80 16q40 -8 54 -28t14 -36q4 -7 4 -10l-2 -6q0 -10 -10 -20q-6 24 -30 30q-47 11 -88 -54l-22 -34q-11 -17 -16 -42h74l22 -4q4 -4 6 -4h6q4 -4 6 -4t2 -2v-2l4 -4v-4q4 -4 4 -13
z" />
    <glyph glyph-name="uniE6D2" unicode="&#xe6d2;" 
d="M1604 896q-419 -463 -838 -333q-144 44 -234 131l-88 86q246 -213 724 -70q181 54 308 120zM480 1135q0 47 33 84t89 37t89 -38t33 -83q0 -47 -35 -83t-86 -36t-87 36t-36 83zM1084 1198q0 50 34 84t85 34t86 -30t35 -88q0 -56 -38 -89t-84 -33t-82 36t-36 86zM1302 1626
q-82 18 -191 18t-245 -36l-94 -24q-458 -159 -586 -370q-50 -83 -62 -182q-21 -146 60 -308q30 -62 66 -106t50 -50q152 -77 152 -233q0 -53 -24 -107q46 6 168 30t268 36t258 26t228 34q223 37 385 102q163 65 181 156q56 417 -178 730q-66 90 -166 168t-270 116z
M1151 1764q238 0 426 -115t300 -295t150 -384t5 -378q-20 -108 -126 -179t-310 -129t-641 -102t-787 -138l-60 -16l58 50q153 131 166 258q7 72 -88 124q-65 32 -148 173q-38 65 -66 157t-30 178t18 160q45 169 214 316q170 147 504 252q177 68 415 68z" />
    <glyph glyph-name="uniE6D3" unicode="&#xe6d3;" 
d="M457 770q14 -13 76 -75q61 -62 147 -101t206 -52t256 24q209 54 466 330q-4 0 -137 -70t-315 -120t-367 -52q-186 -2 -332 116zM602 1256q-103 0 -122 -120q20 -120 137 -120q58 0 99 74q12 23 8 46q6 32 -26 76q-31 44 -96 44zM1201 1316q-51 0 -85 -38t-28 -82
q-6 -38 30 -79t68 -41t54 7t44 23q21 16 29 32t15 58q-15 120 -127 120zM108 28l60 50q155 139 166 258q6 71 -86 124q-66 30 -153 179t-93 333q-14 370 436 604q130 68 298 120h4q516 166 875 -70q104 -68 185 -166q151 -183 212 -424t20 -444q-14 -107 -120 -178
q-106 -72 -310 -130t-652 -103q-446 -45 -780 -137z" />
    <glyph glyph-name="uniE6D4" unicode="&#xe6d4;" 
d="M1080 480l-116 -4l-4 244l-236 -4l-4 124l244 -4l-4 244l124 -4l-4 -236l244 -4l-4 -116l-236 -4zM120 1440l-4 -1324l1812 -4l-4 1332zM1020 1804q-152 -10 -272 -77t-172 -167l892 4q-102 166 -312 222q-69 18 -132 14zM2048 1560l-4 -1564l-2044 -4l-4 1572l440 -4
q66 151 226 253t358 111q196 -8 349 -101t239 -259z" />
    <glyph glyph-name="uniE6D5" unicode="&#xe6d5;" 
d="M120 112h1808v372q0 44 -32 76t-76 32h-688l192 688v400q0 48 -36 84t-84 36h-360q-48 0 -84 -36t-36 -84v-396l192 -692h-688q-44 0 -76 -32t-32 -76v-372zM2048 -8h-120v-120h-1808v120h-120v492q0 96 68 162t160 66h528l-152 564v404q0 153 148 220q45 20 92 20h360
q96 0 168 -72t72 -168l-4 -424l-152 -544h532q92 0 160 -66t68 -162v-492z" />
    <glyph glyph-name="uniE6D6" unicode="&#xe6d6;" 
d="M1716 896l-312 320l80 84l408 -404l-408 -404l-80 84zM156 896l400 404l88 -84l-320 -320l320 -320l-88 -84zM1084 1920l-4 -2048h-116l-4 2048h124z" />
    <glyph glyph-name="uniE6D7" unicode="&#xe6d7;" 
d="M732 612l-388 -384l316 -4l228 236zM1168 548l-252 248l-100 -96l256 -256zM1928 1328q0 24 -20 44l-168 164q-6 9 -8 10q-4 2 -10 6t-12 4t-10 4q-7 -4 -14 -4q-6 0 -12 -4t-10 -6q-2 -1 -8 -10l-656 -652l256 -256l652 660v-4q20 20 20 44zM2048 1324q0 -24 -10 -54
t-19 -41q-9 -10 -23 -33l-924 -920l-100 92l-264 -260l-652 -4l1516 1524q81 67 194 34q34 -11 62 -38l168 -168v-4q34 -22 48 -88q4 -16 4 -40z" />
    <glyph glyph-name="uniE6D8" unicode="&#xe6d8;" 
d="M1248 1248q-70 48 -210 48q-62 0 -110 -44t-48 -105t36 -99t158 -88q122 -49 184 -113q62 -65 62 -181t-90 -195t-242 -79q-150 0 -256 64l32 104q106 -64 209 -64t161 46t58 118q0 70 -44 118t-140 78q-138 60 -197 122t-59 168t88 180t218 74t226 -48zM1932 1680h-244
v120h364v-1808h-364v120h244v1568zM364 -8h-360v1808h360v-120h-240v-1568h240v-120z" />
    <glyph glyph-name="uniE6D9" unicode="&#xe6d9;" 
d="M1344 1216l84 84l404 -404l-404 -404l-84 84l316 320zM964 1920v-2048h-120v2048h120z" />
    <glyph glyph-name="uniE6DA" unicode="&#xe6da;" 
d="M216 896l400 404l88 -84l-320 -320l320 -320l-88 -84zM1200 -128h-116l-4 2048h124z" />
    <glyph glyph-name="uniE6DB" unicode="&#xe6db;" 
d="M360 232h520l-520 520v-520zM240 112v928l928 -928h-928zM120 -8h1600l-304 308l-80 -80l-84 84l76 80l-84 84l-80 -76l-84 84l80 80l-88 84l-76 -80l-88 88l80 76l-84 88l-80 -80l-84 84l76 80l-84 84l-80 -76l-84 84l80 80l-88 84l-76 -80l-88 88l80 76l-356 356v-1600
zM0 -128v2012l2012 -2012h-2012z" />
    <glyph glyph-name="uniE6DC" unicode="&#xe6dc;" 
d="M1444 596h-840v120h840v-120zM600 1076h484v-120h-484v120zM600 1316h844v-120h-844v120zM600 1560h724v-120h-724v120zM1688 1800h-1328v-1580l128 156l180 -228l180 228l180 -228l180 228l180 -228l180 228l120 -148v1572zM240 1920h1568v-2036l-240 300l-180 -228
l-180 228l-180 -228l-180 228l-180 -228l-184 228l-244 -300v2036z" />
    <glyph glyph-name="uniE6DD" unicode="&#xe6dd;" 
d="M1084 -128h-120v664h120v-664zM480 716h1088v64l-120 56l-152 864l56 100h-656l56 -100l-152 -864l-120 -56v-64zM1688 596h-1328v264l132 60l136 760l-136 240h1064l-136 -240l136 -760l132 -60v-264z" />
    <glyph glyph-name="uniE6DE" unicode="&#xe6de;" 
d="M104 -112l-88 88l636 632l84 -84zM1244 532l464 664l112 32l-464 464l-32 -112l-716 -504l-124 48l-44 -48l764 -764l48 44l-48 124zM1220 1656l80 264l748 -748l-264 -80l-444 -632l52 -132l-188 -188l-936 936l188 188l132 -52z" />
    <glyph glyph-name="uniE6DF" unicode="&#xe6df;" 
d="M1188 452h-328l112 -220h104zM1204 1252h-360v-680h360v680zM1204 1496h-360v-124h360v124zM904 1800q-24 0 -42 -18t-18 -42v-124h360v124q0 24 -18 42t-42 18h-240zM1144 1920q76 0 128 -52t52 -128v-1284l-296 -596l-304 596v1284q0 76 52 128t128 52h240z" />
    <glyph glyph-name="uniE6E0" unicode="&#xe6e0;" 
d="M1264 896q0 -48 35 -84t86 -36t85 34t34 85t-33 86t-84 35t-87 -36t-36 -84zM1628 896q0 -96 -70 -168t-174 -72q-153 0 -220 148q-20 45 -20 92q0 96 68 168t172 72t174 -72t70 -168zM572 1332q48 0 84 -35t36 -86t-36 -87t-84 -36t-84 35t-36 86t36 87t84 36z
M1026 1196q-76 0 -129 53t-53 127t50 128q50 56 128 56t130 -54t52 -127t-51 -128t-127 -55zM1868 896q0 348 -248 596t-596 248t-596 -248q-116 -117 -182 -269t-66 -313q0 -301 175 -528t457 -302l-92 92q-88 88 -88 212q0 60 26 118q80 178 276 178q130 0 214 -84
l376 -376q242 170 320 480q24 96 24 196zM1021 1860q199 0 375 -74t310 -208t208 -310t74 -372q0 -370 -254 -650q-85 -93 -182 -158l-40 -24l-448 448q-60 52 -132 52t-124 -52q-17 -12 -24 -28l-20 -40q-12 -24 -12 -58t17 -74t39 -56l328 -328l-156 8q-190 8 -358 85
t-294 209t-198 306q-70 172 -70 364t75 369t205 307t306 208q176 76 375 76z" />
    <glyph glyph-name="uniE6E1" unicode="&#xe6e1;" 
d="M1688 956q0 -54 36 -87t84 -33t84 36t36 84t-36 84t-82 36t-84 -33t-38 -87zM1024 836q48 0 84 36t36 84t-36 84t-84 36t-84 -36t-36 -84t36 -84t84 -36zM120 956q0 -48 37 -84t83 -36q44 0 82 33t38 87t-38 87t-84 33t-82 -36t-36 -84zM1806 1196q102 0 172 -70t70 -170
t-70 -170t-172 -70t-170 70t-68 170t68 170t170 70zM1024 1196q100 0 170 -70t70 -170t-70 -170t-170 -70t-170 70t-70 170t70 170t170 70zM242 1196q102 0 170 -70t68 -170t-68 -170t-170 -70t-172 70t-70 170t70 170t172 70z" />
    <glyph glyph-name="uniE6E2" unicode="&#xe6e2;" 
d="M1806 1196q102 0 172 -70t70 -170t-70 -170t-172 -70t-170 70t-68 170t68 170t170 70zM1024 1196q100 0 170 -70t70 -170t-70 -170t-170 -70t-170 70t-70 170t70 170t170 70zM480 956q0 -100 -68 -170t-170 -70t-172 70t-70 170t70 170t172 70t170 -70t68 -170z" />
    <glyph glyph-name="uniE6E3" unicode="&#xe6e3;" 
d="M892 236l264 -4l108 740q-34 -20 -89 -38t-87 -20t-64 -6q-31 4 -64 6t-88 20t-88 38zM636 1412q0 -72 30 -144t83 -125t125 -84t150 -27q78 -4 150 27t126 85q112 112 112 272q0 121 -42 182t-46 66v-224l-120 4v316q-12 12 -28 16t-31 12t-29 10q-14 1 -32 6v-488
l-120 4v480q-15 4 -26 0t-30 -10t-37 -14q-18 -9 -27 -12v-324l-120 4v220q-56 -76 -72 -128t-16 -124zM512 1446q0 80 42 172q42 94 112 164t163 110q94 40 195 36q101 4 195 -36q93 -40 163 -110t112 -164t42 -172q0 -218 -136 -370l-136 -964l-180 4v-244l-120 4v236
l-180 4l-136 960q-96 108 -126 246q-10 44 -10 124z" />
    <glyph glyph-name="uniE6E4" unicode="&#xe6e4;" 
d="M1808 664v652h-364v-616q0 -110 -58 -206t-154 -151t-208 -55t-208 55t-154 151t-58 206v616h-364v-652q0 -333 274 -520q225 -152 514 -152q124 0 259 38t247 114q274 187 274 520zM1444 1440h364v360h-364v-360zM240 1440h364v360h-364v-360zM1324 1920h604v-1256
q0 -184 -77 -334t-207 -252t-292 -154t-328 -52t-328 52t-292 154t-207 252t-77 334v1256h604v-1220q0 -118 86 -203t214 -85t214 85t86 203v1220z" />
    </font>
</defs>
</svg>
