<?xml version="1.0" encoding="utf-8"?>
<!-- Generator: Adobe Illustrator 16.0.0, SVG Export Plug-In . SVG Version: 6.00 Build 0)  -->
<!DOCTYPE svg PUBLIC "-//W3C//DTD SVG 1.1//EN" "http://www.w3.org/Graphics/SVG/1.1/DTD/svg11.dtd">
<svg version="1.1" id="Layer_1" xmlns="http://www.w3.org/2000/svg" xmlns:xlink="http://www.w3.org/1999/xlink" x="0px" y="0px"
	 width="17px" height="17px" viewBox="0 0 17 17" enable-background="new 0 0 17 17" xml:space="preserve">
<path fill="#FFFFFF" d="M11.986,10.21c0.697-0.081,1.345-0.114,1.942-0.114c1.112,0,2.523,0.133,2.938,0.812
	c0.116,0.168,0.216,0.465,0.033,0.865c-0.017,0.017-0.033,0.048-0.05,0.064v0.017c-0.05,0.301-0.299,0.633-1.179,0.633
	c-1.062,0-2.673-0.481-4.067-1.214c-2.308,0.251-4.731,0.766-6.507,1.378C3.387,15.574,2.076,17,1.08,17
	c-0.166,0-0.315-0.031-0.465-0.116l-0.398-0.199c-0.05-0.017-0.066-0.048-0.1-0.081c-0.083-0.083-0.149-0.268-0.1-0.598
	c0.166-0.766,1.062-2.044,3.121-3.123c0.133-0.083,0.299-0.031,0.382,0.1c0.017,0.017,0.033,0.05,0.033,0.068
	c0.515-0.849,1.112-1.928,1.776-3.271c0.747-1.496,1.328-2.956,1.727-4.351C6.525,3.62,6.359,1.761,6.658,0.665
	C6.774,0.249,7.023,0,7.355,0h0.349H7.72c0.249,0,0.448,0.084,0.581,0.249C8.5,0.481,8.55,0.847,8.451,1.379
	c-0.017,0.049-0.033,0.1-0.066,0.133c0.017,0.049,0.017,0.083,0.017,0.133c0,0.165,0,0.332,0,0.498
	C8.384,3.188,8.368,4.183,8.168,5.33c0.581,1.744,1.444,3.155,2.423,3.953C11.007,9.612,11.472,9.913,11.986,10.21z M3.304,13.48
	c-1.246,0.963-2.025,2.061-2.274,2.623C1.527,15.871,2.242,15.157,3.304,13.48z M10.293,10.461
	c-0.166-0.135-0.332-0.251-0.481-0.384c-0.813-0.714-1.543-1.708-2.108-2.92c-0.315,1.012-0.78,2.09-1.378,3.269
	c-0.249,0.465-0.498,0.93-0.747,1.378C7.04,11.223,8.666,10.758,10.293,10.461z M7.604,3.022c0.05-0.267,0.083-0.516,0.116-0.732
	c0.033-0.281,0.083-0.514,0.116-0.714C7.853,1.528,7.87,1.495,7.903,1.444C7.886,1.428,7.886,1.396,7.87,1.362
	c-0.017-0.3-0.116-0.483-0.216-0.599c0,0.035-0.018,0.051-0.018,0.067C7.471,1.295,7.471,2.093,7.604,3.022z M13.979,11.14
	c0.813,0.301,1.561,0.465,2.059,0.465c0.149,0,0.232,0,0.299-0.017c0-0.017-0.017-0.031-0.033-0.048
	C16.22,11.455,15.788,11.14,13.979,11.14z"/>
</svg>
